<svg width="248" height="58" viewBox="0 0 248 58" fill="none" xmlns="http://www.w3.org/2000/svg">
<path d="M23.4849 39.2829L24.6324 39.952C26.5494 41.0698 28.7281 41.6667 31.0016 41.6667C37.9972 41.6667 43.6682 35.9957 43.6682 29.0001C43.6682 22.0045 37.9972 16.3334 31.0016 16.3334C24.0059 16.3334 18.3349 22.0045 18.3349 29.0001C18.3349 31.2742 18.9322 33.4537 20.0507 35.3711L20.7195 36.5174L19.6848 40.32L23.4849 39.2829ZM15.1748 44.8334L17.3154 36.9666C15.9503 34.6266 15.1682 31.9047 15.1682 29.0001C15.1682 20.2556 22.257 13.1667 31.0016 13.1667C39.746 13.1667 46.8349 20.2556 46.8349 29.0001C46.8349 37.7445 39.746 44.8334 31.0016 44.8334C28.0979 44.8334 25.3768 44.0519 23.0372 42.6875L15.1748 44.8334ZM25.2878 21.5716C25.4998 21.5567 25.7125 21.5544 25.9248 21.5648C26.0105 21.5704 26.0959 21.5803 26.1813 21.5902C26.4334 21.6193 26.7107 21.7729 26.8039 21.9842C27.2763 23.0552 27.7346 24.1324 28.1788 25.2153C28.2768 25.4544 28.2178 25.7643 28.0312 26.0641C27.9366 26.2178 27.7879 26.4335 27.6156 26.6541C27.4365 26.8832 27.0511 27.3045 27.0511 27.3045C27.0511 27.3045 26.895 27.4916 26.9539 27.7245C26.9768 27.8126 27.0499 27.9408 27.1162 28.0487C27.1529 28.1083 27.187 28.1617 27.2091 28.1986C27.6143 28.8752 28.159 29.5611 28.8243 30.2059C29.015 30.3907 29.1999 30.5793 29.3988 30.7544C30.1402 31.4082 30.9791 31.9424 31.8851 32.3381L31.8932 32.3417C32.0269 32.3993 32.0957 32.4308 32.2915 32.514C32.3903 32.5558 32.4913 32.5919 32.595 32.6193C32.6326 32.6291 32.671 32.6346 32.7097 32.6373C32.9657 32.6527 33.1137 32.4885 33.1769 32.413C34.3225 31.0252 34.4273 30.9346 34.4352 30.9352V30.9378C34.5858 30.7791 34.8225 30.724 35.0337 30.737C35.1301 30.7429 35.2261 30.7614 35.3138 30.8014C36.1558 31.1856 37.5325 31.7847 37.5325 31.7847L38.4532 32.1986C38.6074 32.273 38.7482 32.4483 38.755 32.6186C38.7591 32.7246 38.7705 32.8956 38.7327 33.2084C38.6831 33.618 38.5585 34.1112 38.4347 34.3696C38.3476 34.5509 38.2349 34.7118 38.1038 34.848C37.926 35.0326 37.7939 35.1447 37.5802 35.304C37.45 35.4009 37.3826 35.4465 37.3826 35.4465C37.1626 35.5852 37.0387 35.6545 36.7766 35.794C36.3691 36.0111 35.9188 36.1358 35.4576 36.1596C35.1635 36.1746 34.8703 36.1959 34.5766 36.18C34.5636 36.1792 33.6769 36.0431 33.6769 36.0431C31.4256 35.4509 29.3435 34.3416 27.5964 32.8032C27.2392 32.4888 26.9079 32.1485 26.5697 31.8119C25.1621 30.4105 24.0964 28.8994 23.4502 27.4699C23.1315 26.765 22.9297 26.0101 22.9265 25.2333C22.9207 24.2723 23.2353 23.3368 23.8207 22.5747C23.9361 22.4245 24.0456 22.2686 24.2346 22.0902C24.4347 21.9012 24.562 21.7998 24.6992 21.7296C24.8821 21.636 25.083 21.586 25.2878 21.5716Z" fill="white"/>
<path d="M59.7655 23V12.44H61.2375V23H59.7655ZM60.5175 23V21.736H67.1575V23H60.5175ZM60.5175 18.2V17.016H66.4055V18.2H60.5175ZM60.5175 13.704V12.44H67.1415V13.704H60.5175ZM72.0071 23.208C71.4311 23.208 70.9191 23.144 70.4711 23.016C70.0338 22.8987 69.6605 22.728 69.3511 22.504C69.0525 22.2693 68.8231 21.992 68.6631 21.672C68.5031 21.3413 68.4231 20.9733 68.4231 20.568L69.6551 20.264C69.6445 20.6373 69.7351 20.9573 69.9271 21.224C70.1191 21.48 70.3965 21.6773 70.7591 21.816C71.1325 21.9547 71.5751 22.024 72.0871 22.024C72.7271 22.024 73.2178 21.9173 73.5591 21.704C73.9111 21.4907 74.0871 21.1973 74.0871 20.824C74.0871 20.5253 73.9911 20.296 73.7991 20.136C73.6071 19.9653 73.3405 19.832 72.9991 19.736C72.6578 19.64 72.2631 19.544 71.8151 19.448C71.4205 19.3627 71.0311 19.2667 70.6471 19.16C70.2631 19.0533 69.9111 18.9147 69.5911 18.744C69.2818 18.5627 69.0311 18.3333 68.8391 18.056C68.6471 17.768 68.5511 17.4053 68.5511 16.968C68.5511 16.4667 68.6845 16.0347 68.9511 15.672C69.2178 15.3093 69.5965 15.0267 70.0871 14.824C70.5778 14.6213 71.1645 14.52 71.8471 14.52C72.5191 14.52 73.0951 14.6267 73.5751 14.84C74.0658 15.0427 74.4498 15.336 74.7271 15.72C75.0045 16.0933 75.1591 16.5413 75.1911 17.064L73.9271 17.368C73.9165 17.0053 73.8205 16.7013 73.6391 16.456C73.4685 16.2 73.2231 16.0133 72.9031 15.896C72.5831 15.768 72.2098 15.704 71.7831 15.704C71.2178 15.704 70.7698 15.8107 70.4391 16.024C70.1191 16.2373 69.9591 16.5307 69.9591 16.904C69.9591 17.192 70.0551 17.4213 70.2471 17.592C70.4498 17.7627 70.7165 17.896 71.0471 17.992C71.3885 18.0773 71.7725 18.168 72.1991 18.264C72.6151 18.3493 73.0151 18.4453 73.3991 18.552C73.7938 18.6587 74.1458 18.7973 74.4551 18.968C74.7645 19.1387 75.0098 19.368 75.1911 19.656C75.3725 19.9333 75.4631 20.296 75.4631 20.744C75.4631 21.2773 75.3191 21.7307 75.0311 22.104C74.7431 22.4667 74.3431 22.744 73.8311 22.936C73.3191 23.1173 72.7111 23.208 72.0071 23.208ZM80.9559 23.208C80.2412 23.208 79.6279 23.096 79.1159 22.872C78.6145 22.6373 78.2039 22.3227 77.8839 21.928C77.5745 21.5227 77.3452 21.064 77.1959 20.552C77.0465 20.04 76.9719 19.5067 76.9719 18.952C76.9719 18.3333 77.0519 17.7573 77.2119 17.224C77.3719 16.6907 77.6119 16.2213 77.9319 15.816C78.2625 15.4107 78.6732 15.096 79.1639 14.872C79.6545 14.6373 80.2199 14.52 80.8599 14.52C81.3399 14.52 81.7772 14.584 82.1719 14.712C82.5665 14.84 82.9079 15.0213 83.1959 15.256C83.4945 15.4907 83.7345 15.7733 83.9159 16.104C84.0972 16.4347 84.2199 16.8027 84.2839 17.208L82.8919 17.592C82.8705 17.272 82.7799 16.9733 82.6199 16.696C82.4705 16.4187 82.2465 16.1947 81.9479 16.024C81.6492 15.8427 81.2812 15.752 80.8439 15.752C80.4599 15.752 80.1185 15.8267 79.8199 15.976C79.5319 16.1253 79.2865 16.3387 79.0839 16.616C78.8812 16.8933 78.7212 17.224 78.6039 17.608C78.4972 17.992 78.4439 18.4293 78.4439 18.92C78.4439 19.56 78.5345 20.1093 78.7159 20.568C78.9079 21.0267 79.1905 21.3787 79.5639 21.624C79.9479 21.8693 80.4172 21.992 80.9719 21.992C81.4199 21.992 81.7985 21.912 82.1079 21.752C82.4172 21.592 82.6572 21.368 82.8279 21.08C83.0092 20.792 83.1265 20.456 83.1799 20.072L84.5079 20.36C84.4439 20.8187 84.3105 21.2293 84.1079 21.592C83.9159 21.944 83.6652 22.2427 83.3559 22.488C83.0572 22.7227 82.7052 22.8987 82.2999 23.016C81.8945 23.144 81.4465 23.208 80.9559 23.208ZM86.1379 23V18.568V14.728H87.4659L87.3219 17.688H87.5779C87.6739 17.0373 87.8232 16.4773 88.0259 16.008C88.2285 15.5387 88.5005 15.176 88.8419 14.92C89.1832 14.6533 89.5939 14.52 90.0739 14.52C90.1912 14.52 90.3192 14.5307 90.4579 14.552C90.5965 14.5733 90.7565 14.6107 90.9379 14.664L90.8579 16.2C90.6979 16.136 90.5379 16.088 90.3779 16.056C90.2179 16.024 90.0632 16.008 89.9139 16.008C89.4979 16.008 89.1352 16.1467 88.8259 16.424C88.5272 16.7013 88.2765 17.0747 88.0739 17.544C87.8819 18.0027 87.7219 18.5307 87.5939 19.128V23H86.1379ZM92.4508 23V14.728H93.9068V23H92.4508ZM93.1708 13.32C92.8401 13.32 92.5894 13.2507 92.4188 13.112C92.2481 12.9733 92.1628 12.7707 92.1628 12.504C92.1628 12.2267 92.2481 12.0187 92.4188 11.88C92.5894 11.7413 92.8401 11.672 93.1708 11.672C93.5121 11.672 93.7681 11.7413 93.9388 11.88C94.1094 12.0187 94.1948 12.2267 94.1948 12.504C94.1948 12.7707 94.1094 12.9733 93.9388 13.112C93.7681 13.2507 93.5121 13.32 93.1708 13.32ZM100.645 23.208C100.111 23.208 99.6526 23.1013 99.2686 22.888C98.8953 22.664 98.5913 22.3653 98.3566 21.992C98.122 21.6187 97.946 21.192 97.8286 20.712H97.5886L97.6686 23H96.3566V18.952V11.832H97.8286V14.376C97.8286 14.6533 97.8126 14.952 97.7806 15.272C97.7593 15.5813 97.722 15.9013 97.6686 16.232C97.626 16.552 97.578 16.872 97.5246 17.192H97.7966C97.914 16.7227 98.0846 16.2853 98.3086 15.88C98.5326 15.4747 98.8366 15.1493 99.2206 14.904C99.6046 14.6587 100.085 14.536 100.661 14.536C101.343 14.536 101.93 14.7173 102.421 15.08C102.922 15.4427 103.306 15.9493 103.573 16.6C103.839 17.2507 103.973 18.008 103.973 18.872C103.973 19.7253 103.839 20.4773 103.573 21.128C103.317 21.7787 102.938 22.2907 102.437 22.664C101.946 23.0267 101.349 23.208 100.645 23.208ZM100.293 21.928C100.751 21.928 101.141 21.8053 101.461 21.56C101.781 21.3147 102.026 20.9627 102.197 20.504C102.367 20.0453 102.453 19.512 102.453 18.904C102.453 18.3067 102.367 17.7787 102.197 17.32C102.037 16.8507 101.791 16.4827 101.461 16.216C101.141 15.9387 100.746 15.8 100.277 15.8C99.946 15.8 99.6473 15.8693 99.3806 16.008C99.114 16.1467 98.8793 16.328 98.6766 16.552C98.4846 16.776 98.3246 17.0213 98.1966 17.288C98.0686 17.5547 97.9726 17.8213 97.9086 18.088C97.8446 18.3547 97.8126 18.5947 97.8126 18.808V19C97.8126 19.3093 97.866 19.64 97.9726 19.992C98.09 20.3333 98.2553 20.6533 98.4686 20.952C98.682 21.24 98.9433 21.4747 99.2526 21.656C99.562 21.8373 99.9086 21.928 100.293 21.928ZM109.566 23.208C108.904 23.208 108.323 23.112 107.822 22.92C107.331 22.7173 106.915 22.4293 106.574 22.056C106.243 21.6827 105.987 21.24 105.806 20.728C105.635 20.2053 105.55 19.6293 105.55 19C105.55 18.3493 105.635 17.752 105.806 17.208C105.976 16.664 106.227 16.1947 106.558 15.8C106.888 15.3947 107.294 15.08 107.774 14.856C108.254 14.632 108.803 14.52 109.422 14.52C109.976 14.52 110.472 14.616 110.91 14.808C111.358 14.9893 111.736 15.2667 112.046 15.64C112.366 16.0133 112.606 16.4827 112.766 17.048C112.926 17.6133 112.99 18.28 112.958 19.048L106.478 19.096V18.104L112.046 18.056L111.566 18.728C111.619 18.0667 111.555 17.5173 111.374 17.08C111.203 16.6427 110.947 16.312 110.606 16.088C110.275 15.864 109.88 15.752 109.422 15.752C108.931 15.752 108.499 15.88 108.126 16.136C107.763 16.392 107.48 16.76 107.278 17.24C107.075 17.72 106.974 18.3013 106.974 18.984C106.974 19.9653 107.192 20.7173 107.63 21.24C108.078 21.752 108.728 22.008 109.582 22.008C109.923 22.008 110.216 21.9653 110.462 21.88C110.718 21.7947 110.931 21.6827 111.102 21.544C111.283 21.3947 111.427 21.224 111.534 21.032C111.651 20.8293 111.736 20.616 111.79 20.392L113.086 20.664C112.99 21.0587 112.846 21.416 112.654 21.736C112.462 22.0453 112.216 22.312 111.918 22.536C111.63 22.7493 111.288 22.9147 110.894 23.032C110.499 23.1493 110.056 23.208 109.566 23.208ZM114.95 23V17.976V14.728H116.278L116.118 17.448H116.374C116.524 16.7547 116.726 16.1947 116.982 15.768C117.249 15.3307 117.574 15.016 117.958 14.824C118.353 14.6213 118.796 14.52 119.286 14.52C119.756 14.52 120.15 14.6 120.47 14.76C120.801 14.92 121.068 15.1333 121.27 15.4C121.484 15.6667 121.649 15.9707 121.766 16.312C121.884 16.6533 121.964 17.0107 122.006 17.384C122.06 17.7573 122.086 18.1253 122.086 18.488V23H120.614V18.696C120.614 18.4613 120.598 18.184 120.566 17.864C120.545 17.544 120.481 17.2293 120.374 16.92C120.268 16.6107 120.097 16.3493 119.862 16.136C119.628 15.9227 119.302 15.816 118.886 15.816C118.374 15.816 117.937 15.9813 117.574 16.312C117.222 16.632 116.945 17.064 116.742 17.608C116.55 18.1413 116.438 18.728 116.406 19.368V23H114.95ZM127.972 23.208C127.183 23.208 126.484 23.0373 125.876 22.696C125.279 22.3547 124.809 21.8587 124.468 21.208C124.127 20.5573 123.956 19.7627 123.956 18.824C123.956 17.864 124.132 17.0693 124.484 16.44C124.847 15.8 125.327 15.32 125.924 15C126.521 14.68 127.193 14.52 127.94 14.52C128.697 14.52 129.375 14.6907 129.972 15.032C130.58 15.3627 131.06 15.8533 131.412 16.504C131.764 17.144 131.94 17.9387 131.94 18.888C131.94 19.848 131.764 20.648 131.412 21.288C131.071 21.928 130.596 22.408 129.988 22.728C129.391 23.048 128.719 23.208 127.972 23.208ZM128.02 22.008C128.308 22.008 128.596 21.96 128.884 21.864C129.172 21.7573 129.433 21.5867 129.668 21.352C129.913 21.1173 130.111 20.8027 130.26 20.408C130.409 20.0133 130.484 19.5227 130.484 18.936C130.484 18.3387 130.404 17.8373 130.244 17.432C130.095 17.0267 129.892 16.7013 129.636 16.456C129.391 16.2107 129.113 16.0347 128.804 15.928C128.495 15.8107 128.191 15.752 127.892 15.752C127.615 15.752 127.332 15.8053 127.044 15.912C126.756 16.008 126.489 16.1733 126.244 16.408C125.999 16.632 125.801 16.9413 125.652 17.336C125.503 17.72 125.428 18.2053 125.428 18.792C125.428 19.3893 125.503 19.896 125.652 20.312C125.801 20.7173 125.999 21.048 126.244 21.304C126.5 21.5493 126.783 21.7307 127.092 21.848C127.401 21.9547 127.711 22.008 128.02 22.008ZM137.07 23.208C136.494 23.208 135.982 23.144 135.534 23.016C135.096 22.8987 134.723 22.728 134.414 22.504C134.115 22.2693 133.886 21.992 133.726 21.672C133.566 21.3413 133.486 20.9733 133.486 20.568L134.718 20.264C134.707 20.6373 134.798 20.9573 134.99 21.224C135.182 21.48 135.459 21.6773 135.822 21.816C136.195 21.9547 136.638 22.024 137.15 22.024C137.79 22.024 138.28 21.9173 138.622 21.704C138.974 21.4907 139.15 21.1973 139.15 20.824C139.15 20.5253 139.054 20.296 138.862 20.136C138.67 19.9653 138.403 19.832 138.062 19.736C137.72 19.64 137.326 19.544 136.878 19.448C136.483 19.3627 136.094 19.2667 135.71 19.16C135.326 19.0533 134.974 18.9147 134.654 18.744C134.344 18.5627 134.094 18.3333 133.902 18.056C133.71 17.768 133.614 17.4053 133.614 16.968C133.614 16.4667 133.747 16.0347 134.014 15.672C134.28 15.3093 134.659 15.0267 135.15 14.824C135.64 14.6213 136.227 14.52 136.91 14.52C137.582 14.52 138.158 14.6267 138.638 14.84C139.128 15.0427 139.512 15.336 139.79 15.72C140.067 16.0933 140.222 16.5413 140.254 17.064L138.99 17.368C138.979 17.0053 138.883 16.7013 138.702 16.456C138.531 16.2 138.286 16.0133 137.966 15.896C137.646 15.768 137.272 15.704 136.846 15.704C136.28 15.704 135.832 15.8107 135.502 16.024C135.182 16.2373 135.022 16.5307 135.022 16.904C135.022 17.192 135.118 17.4213 135.31 17.592C135.512 17.7627 135.779 17.896 136.11 17.992C136.451 18.0773 136.835 18.168 137.262 18.264C137.678 18.3493 138.078 18.4453 138.462 18.552C138.856 18.6587 139.208 18.7973 139.518 18.968C139.827 19.1387 140.072 19.368 140.254 19.656C140.435 19.9333 140.526 20.296 140.526 20.744C140.526 21.2773 140.382 21.7307 140.094 22.104C139.806 22.4667 139.406 22.744 138.894 22.936C138.382 23.1173 137.774 23.208 137.07 23.208ZM148.34 23.208C147.881 23.208 147.47 23.1227 147.108 22.952C146.745 22.7813 146.457 22.5253 146.243 22.184C146.03 21.8427 145.924 21.416 145.924 20.904C145.924 20.3493 146.041 19.9067 146.276 19.576C146.51 19.2453 146.814 18.9893 147.188 18.808C147.561 18.616 147.966 18.4773 148.404 18.392C148.852 18.3067 149.289 18.232 149.716 18.168C150.153 18.104 150.494 18.0453 150.74 17.992C150.996 17.928 151.177 17.8427 151.284 17.736C151.39 17.6187 151.444 17.448 151.444 17.224C151.444 16.936 151.38 16.68 151.252 16.456C151.124 16.232 150.937 16.056 150.692 15.928C150.446 15.8 150.126 15.736 149.732 15.736C149.412 15.736 149.092 15.7893 148.772 15.896C148.452 16.0027 148.174 16.184 147.94 16.44C147.705 16.696 147.55 17.048 147.476 17.496L146.148 17.064C146.233 16.6587 146.372 16.3013 146.564 15.992C146.766 15.6827 147.017 15.416 147.316 15.192C147.625 14.968 147.982 14.8027 148.388 14.696C148.793 14.5787 149.236 14.52 149.716 14.52C150.377 14.52 150.916 14.616 151.332 14.808C151.748 14.9893 152.068 15.2453 152.292 15.576C152.516 15.896 152.67 16.2533 152.756 16.648C152.841 17.0427 152.884 17.4427 152.884 17.848V19.624C152.884 19.9653 152.889 20.3333 152.9 20.728C152.921 21.112 152.942 21.5013 152.964 21.896C152.996 22.2907 153.028 22.6587 153.06 23H151.716C151.694 22.648 151.673 22.296 151.652 21.944C151.63 21.592 151.614 21.2347 151.604 20.872H151.396C151.246 21.288 151.038 21.672 150.772 22.024C150.505 22.376 150.169 22.664 149.764 22.888C149.358 23.1013 148.884 23.208 148.34 23.208ZM148.756 22.024C149.001 22.024 149.246 21.9867 149.492 21.912C149.737 21.8267 149.982 21.6987 150.228 21.528C150.473 21.3467 150.697 21.1173 150.9 20.84C151.113 20.5627 151.3 20.2267 151.46 19.832V18.344L151.892 18.408C151.721 18.5787 151.492 18.712 151.204 18.808C150.926 18.8933 150.617 18.9627 150.276 19.016C149.934 19.0587 149.593 19.112 149.252 19.176C148.91 19.24 148.596 19.3253 148.308 19.432C148.03 19.5387 147.801 19.6987 147.62 19.912C147.449 20.1147 147.364 20.392 147.364 20.744C147.364 21.16 147.492 21.48 147.748 21.704C148.004 21.9173 148.34 22.024 148.756 22.024ZM155.247 23V11.832H156.703V23H155.247ZM164.514 23L162.306 14.728H163.81L165.442 21.752H165.682L167.442 14.728H169.314L171.058 21.752H171.282L172.93 14.728H174.418L172.194 23H170.162L168.45 16.008H168.274L166.562 23H164.514ZM176.013 23V18.104V11.832H177.517V14.376C177.517 14.6 177.506 14.84 177.485 15.096C177.474 15.3413 177.453 15.5973 177.421 15.864C177.4 16.12 177.368 16.3813 177.325 16.648C177.293 16.904 177.261 17.1653 177.229 17.432H177.485C177.634 16.7813 177.832 16.2427 178.077 15.816C178.322 15.3787 178.632 15.0533 179.005 14.84C179.389 14.6267 179.837 14.52 180.349 14.52C180.904 14.52 181.357 14.6213 181.709 14.824C182.061 15.0267 182.333 15.2933 182.525 15.624C182.717 15.9547 182.856 16.3067 182.941 16.68C183.037 17.0427 183.096 17.3947 183.117 17.736C183.138 18.0773 183.149 18.3653 183.149 18.6V23H181.677V18.84C181.677 18.488 181.656 18.136 181.613 17.784C181.581 17.432 181.506 17.112 181.389 16.824C181.282 16.5253 181.112 16.2853 180.877 16.104C180.642 15.912 180.322 15.816 179.917 15.816C179.426 15.816 179.01 15.9653 178.669 16.264C178.328 16.5627 178.056 16.968 177.853 17.48C177.661 17.9813 177.533 18.5627 177.469 19.224V23H176.013ZM187.386 23.208C186.928 23.208 186.517 23.1227 186.154 22.952C185.792 22.7813 185.504 22.5253 185.29 22.184C185.077 21.8427 184.97 21.416 184.97 20.904C184.97 20.3493 185.088 19.9067 185.322 19.576C185.557 19.2453 185.861 18.9893 186.234 18.808C186.608 18.616 187.013 18.4773 187.45 18.392C187.898 18.3067 188.336 18.232 188.762 18.168C189.2 18.104 189.541 18.0453 189.786 17.992C190.042 17.928 190.224 17.8427 190.33 17.736C190.437 17.6187 190.49 17.448 190.49 17.224C190.49 16.936 190.426 16.68 190.298 16.456C190.17 16.232 189.984 16.056 189.738 15.928C189.493 15.8 189.173 15.736 188.778 15.736C188.458 15.736 188.138 15.7893 187.818 15.896C187.498 16.0027 187.221 16.184 186.986 16.44C186.752 16.696 186.597 17.048 186.522 17.496L185.194 17.064C185.28 16.6587 185.418 16.3013 185.61 15.992C185.813 15.6827 186.064 15.416 186.362 15.192C186.672 14.968 187.029 14.8027 187.434 14.696C187.84 14.5787 188.282 14.52 188.762 14.52C189.424 14.52 189.962 14.616 190.378 14.808C190.794 14.9893 191.114 15.2453 191.338 15.576C191.562 15.896 191.717 16.2533 191.802 16.648C191.888 17.0427 191.93 17.4427 191.93 17.848V19.624C191.93 19.9653 191.936 20.3333 191.946 20.728C191.968 21.112 191.989 21.5013 192.01 21.896C192.042 22.2907 192.074 22.6587 192.106 23H190.762C190.741 22.648 190.72 22.296 190.698 21.944C190.677 21.592 190.661 21.2347 190.65 20.872H190.442C190.293 21.288 190.085 21.672 189.818 22.024C189.552 22.376 189.216 22.664 188.81 22.888C188.405 23.1013 187.93 23.208 187.386 23.208ZM187.802 22.024C188.048 22.024 188.293 21.9867 188.538 21.912C188.784 21.8267 189.029 21.6987 189.274 21.528C189.52 21.3467 189.744 21.1173 189.946 20.84C190.16 20.5627 190.346 20.2267 190.506 19.832V18.344L190.938 18.408C190.768 18.5787 190.538 18.712 190.25 18.808C189.973 18.8933 189.664 18.9627 189.322 19.016C188.981 19.0587 188.64 19.112 188.298 19.176C187.957 19.24 187.642 19.3253 187.354 19.432C187.077 19.5387 186.848 19.6987 186.666 19.912C186.496 20.1147 186.41 20.392 186.41 20.744C186.41 21.16 186.538 21.48 186.794 21.704C187.05 21.9173 187.386 22.024 187.802 22.024ZM196.871 23.16C196.497 23.16 196.167 23.1067 195.879 23C195.601 22.904 195.367 22.7547 195.174 22.552C194.983 22.3387 194.839 22.0773 194.743 21.768C194.647 21.448 194.599 21.0693 194.599 20.632V15.944H193.383L193.399 14.744H194.135C194.412 14.7333 194.609 14.68 194.727 14.584C194.855 14.488 194.935 14.3173 194.967 14.072L195.111 12.872H196.023V14.728H198.375V15.976H196.023V20.6C196.023 21.048 196.124 21.3627 196.327 21.544C196.54 21.7147 196.817 21.8 197.159 21.8C197.361 21.8 197.569 21.7733 197.783 21.72C197.996 21.6667 198.209 21.5653 198.423 21.416V22.872C198.124 22.9787 197.841 23.0533 197.575 23.096C197.319 23.1387 197.084 23.16 196.871 23.16ZM203.242 23.208C202.666 23.208 202.154 23.144 201.706 23.016C201.268 22.8987 200.895 22.728 200.586 22.504C200.287 22.2693 200.058 21.992 199.898 21.672C199.738 21.3413 199.658 20.9733 199.658 20.568L200.89 20.264C200.879 20.6373 200.97 20.9573 201.162 21.224C201.354 21.48 201.631 21.6773 201.994 21.816C202.367 21.9547 202.81 22.024 203.322 22.024C203.962 22.024 204.452 21.9173 204.794 21.704C205.146 21.4907 205.322 21.1973 205.322 20.824C205.322 20.5253 205.226 20.296 205.034 20.136C204.842 19.9653 204.575 19.832 204.234 19.736C203.892 19.64 203.498 19.544 203.049 19.448C202.655 19.3627 202.266 19.2667 201.882 19.16C201.498 19.0533 201.146 18.9147 200.826 18.744C200.516 18.5627 200.266 18.3333 200.074 18.056C199.882 17.768 199.786 17.4053 199.786 16.968C199.786 16.4667 199.919 16.0347 200.186 15.672C200.452 15.3093 200.831 15.0267 201.322 14.824C201.812 14.6213 202.399 14.52 203.082 14.52C203.754 14.52 204.33 14.6267 204.81 14.84C205.3 15.0427 205.684 15.336 205.962 15.72C206.239 16.0933 206.394 16.5413 206.426 17.064L205.162 17.368C205.151 17.0053 205.055 16.7013 204.874 16.456C204.703 16.2 204.458 16.0133 204.138 15.896C203.818 15.768 203.444 15.704 203.018 15.704C202.452 15.704 202.004 15.8107 201.674 16.024C201.354 16.2373 201.194 16.5307 201.194 16.904C201.194 17.192 201.29 17.4213 201.482 17.592C201.684 17.7627 201.951 17.896 202.282 17.992C202.623 18.0773 203.007 18.168 203.434 18.264C203.85 18.3493 204.25 18.4453 204.634 18.552C205.028 18.6587 205.38 18.7973 205.69 18.968C205.999 19.1387 206.244 19.368 206.426 19.656C206.607 19.9333 206.698 20.296 206.698 20.744C206.698 21.2773 206.554 21.7307 206.266 22.104C205.978 22.4667 205.578 22.744 205.066 22.936C204.554 23.1173 203.946 23.208 203.242 23.208ZM210.621 23.208C210.162 23.208 209.751 23.1227 209.389 22.952C209.026 22.7813 208.738 22.5253 208.525 22.184C208.311 21.8427 208.205 21.416 208.205 20.904C208.205 20.3493 208.322 19.9067 208.557 19.576C208.791 19.2453 209.095 18.9893 209.469 18.808C209.842 18.616 210.247 18.4773 210.685 18.392C211.133 18.3067 211.57 18.232 211.997 18.168C212.434 18.104 212.775 18.0453 213.021 17.992C213.277 17.928 213.458 17.8427 213.565 17.736C213.671 17.6187 213.725 17.448 213.725 17.224C213.725 16.936 213.661 16.68 213.533 16.456C213.405 16.232 213.218 16.056 212.973 15.928C212.727 15.8 212.407 15.736 212.013 15.736C211.693 15.736 211.373 15.7893 211.053 15.896C210.733 16.0027 210.455 16.184 210.221 16.44C209.986 16.696 209.831 17.048 209.757 17.496L208.429 17.064C208.514 16.6587 208.653 16.3013 208.845 15.992C209.047 15.6827 209.298 15.416 209.597 15.192C209.906 14.968 210.263 14.8027 210.669 14.696C211.074 14.5787 211.517 14.52 211.997 14.52C212.658 14.52 213.197 14.616 213.613 14.808C214.029 14.9893 214.349 15.2453 214.573 15.576C214.797 15.896 214.951 16.2533 215.037 16.648C215.122 17.0427 215.165 17.4427 215.165 17.848V19.624C215.165 19.9653 215.17 20.3333 215.181 20.728C215.202 21.112 215.223 21.5013 215.245 21.896C215.277 22.2907 215.309 22.6587 215.341 23H213.997C213.975 22.648 213.954 22.296 213.933 21.944C213.911 21.592 213.895 21.2347 213.885 20.872H213.677C213.527 21.288 213.319 21.672 213.053 22.024C212.786 22.376 212.45 22.664 212.045 22.888C211.639 23.1013 211.165 23.208 210.621 23.208ZM211.037 22.024C211.282 22.024 211.527 21.9867 211.773 21.912C212.018 21.8267 212.263 21.6987 212.509 21.528C212.754 21.3467 212.978 21.1173 213.181 20.84C213.394 20.5627 213.581 20.2267 213.741 19.832V18.344L214.173 18.408C214.002 18.5787 213.773 18.712 213.485 18.808C213.207 18.8933 212.898 18.9627 212.557 19.016C212.215 19.0587 211.874 19.112 211.533 19.176C211.191 19.24 210.877 19.3253 210.589 19.432C210.311 19.5387 210.082 19.6987 209.901 19.912C209.73 20.1147 209.645 20.392 209.645 20.744C209.645 21.16 209.773 21.48 210.029 21.704C210.285 21.9173 210.621 22.024 211.037 22.024ZM217.529 25.56V18.84V14.728H218.841L218.761 16.904H219.001C219.118 16.424 219.294 16.008 219.529 15.656C219.763 15.2933 220.062 15.016 220.424 14.824C220.787 14.6213 221.225 14.52 221.737 14.52C222.483 14.52 223.107 14.7067 223.609 15.08C224.121 15.4533 224.505 15.9707 224.76 16.632C225.017 17.2827 225.145 18.0293 225.145 18.872C225.145 19.7147 225.017 20.4613 224.76 21.112C224.505 21.7627 224.126 22.2747 223.625 22.648C223.134 23.0213 222.537 23.208 221.833 23.208C221.257 23.208 220.777 23.0853 220.393 22.84C220.009 22.5947 219.705 22.2747 219.481 21.88C219.257 21.4853 219.086 21.0587 218.969 20.6H218.713C218.766 20.9093 218.814 21.224 218.857 21.544C218.899 21.8533 218.931 22.1627 218.953 22.472C218.985 22.7707 219.001 23.0587 219.001 23.336V25.56H217.529ZM221.449 21.944C221.918 21.944 222.313 21.8107 222.633 21.544C222.963 21.2667 223.209 20.8987 223.369 20.44C223.539 19.9707 223.625 19.4373 223.625 18.84C223.625 18.2213 223.539 17.688 223.369 17.24C223.198 16.7813 222.953 16.4293 222.633 16.184C222.313 15.928 221.923 15.8 221.465 15.8C221.07 15.8 220.718 15.8907 220.409 16.072C220.11 16.2427 219.854 16.4773 219.641 16.776C219.427 17.064 219.262 17.3787 219.145 17.72C219.038 18.0613 218.985 18.4027 218.985 18.744V18.936C218.985 19.1493 219.017 19.3893 219.081 19.656C219.145 19.9227 219.241 20.1893 219.369 20.456C219.497 20.7227 219.657 20.968 219.849 21.192C220.051 21.416 220.286 21.5973 220.553 21.736C220.819 21.8747 221.118 21.944 221.449 21.944ZM227.154 25.56V18.84V14.728H228.466L228.386 16.904H228.626C228.743 16.424 228.919 16.008 229.154 15.656C229.388 15.2933 229.687 15.016 230.049 14.824C230.412 14.6213 230.85 14.52 231.362 14.52C232.108 14.52 232.732 14.7067 233.234 15.08C233.746 15.4533 234.13 15.9707 234.385 16.632C234.642 17.2827 234.77 18.0293 234.77 18.872C234.77 19.7147 234.642 20.4613 234.385 21.112C234.13 21.7627 233.751 22.2747 233.25 22.648C232.759 23.0213 232.162 23.208 231.458 23.208C230.882 23.208 230.402 23.0853 230.018 22.84C229.634 22.5947 229.33 22.2747 229.106 21.88C228.882 21.4853 228.711 21.0587 228.594 20.6H228.338C228.391 20.9093 228.439 21.224 228.482 21.544C228.524 21.8533 228.556 22.1627 228.578 22.472C228.61 22.7707 228.626 23.0587 228.626 23.336V25.56H227.154ZM231.074 21.944C231.543 21.944 231.938 21.8107 232.258 21.544C232.588 21.2667 232.834 20.8987 232.994 20.44C233.164 19.9707 233.25 19.4373 233.25 18.84C233.25 18.2213 233.164 17.688 232.994 17.24C232.823 16.7813 232.578 16.4293 232.258 16.184C231.938 15.928 231.548 15.8 231.09 15.8C230.695 15.8 230.343 15.8907 230.034 16.072C229.735 16.2427 229.479 16.4773 229.266 16.776C229.052 17.064 228.887 17.3787 228.77 17.72C228.663 18.0613 228.61 18.4027 228.61 18.744V18.936C228.61 19.1493 228.642 19.3893 228.706 19.656C228.77 19.9227 228.866 20.1893 228.994 20.456C229.122 20.7227 229.282 20.968 229.474 21.192C229.676 21.416 229.911 21.5973 230.178 21.736C230.444 21.8747 230.743 21.944 231.074 21.944Z" fill="white"/>
<path d="M58.5072 44.7V36.58H60.6072V44.7H58.5072ZM55.5272 41.62V39.64H63.5872V41.62H55.5272ZM70.1495 47.28C69.1629 47.28 68.3029 47.14 67.5695 46.86C66.8362 46.5667 66.2629 46.1533 65.8495 45.62C65.4495 45.0733 65.2495 44.4133 65.2495 43.64L67.6495 43.16C67.7029 43.8267 67.9495 44.34 68.3895 44.7C68.8295 45.0467 69.4095 45.22 70.1295 45.22C70.9562 45.22 71.5895 45 72.0295 44.56C72.4695 44.1067 72.6895 43.42 72.6895 42.5C72.6895 42.1267 72.6495 41.78 72.5695 41.46C72.4895 41.1267 72.3629 40.84 72.1895 40.6C72.0162 40.36 71.7829 40.1733 71.4895 40.04C71.2095 39.9067 70.8629 39.84 70.4495 39.84C70.1429 39.84 69.8629 39.88 69.6095 39.96C69.3695 40.0267 69.1562 40.1333 68.9695 40.28C68.7829 40.4133 68.6162 40.58 68.4695 40.78C68.3362 40.9667 68.2162 41.18 68.1095 41.42H65.5095L65.9895 33.8H74.7095V35.92H68.1095L67.8095 40.06H68.0295C68.3095 39.34 68.7495 38.8067 69.3495 38.46C69.9495 38.1133 70.6229 37.94 71.3695 37.94C72.2495 37.94 72.9762 38.1333 73.5495 38.52C74.1362 38.8933 74.5695 39.42 74.8495 40.1C75.1429 40.7667 75.2895 41.56 75.2895 42.48C75.2895 43.6 75.0695 44.5133 74.6295 45.22C74.2029 45.9267 73.6029 46.4467 72.8295 46.78C72.0562 47.1133 71.1629 47.28 70.1495 47.28ZM83.1622 47.3C81.2689 47.3 79.8155 46.7267 78.8022 45.58C77.7889 44.42 77.2822 42.7333 77.2822 40.52C77.2822 39.0267 77.5089 37.76 77.9622 36.72C78.4155 35.6667 79.0755 34.8667 79.9422 34.32C80.8089 33.7733 81.8489 33.5 83.0622 33.5C83.6889 33.5 84.2689 33.58 84.8022 33.74C85.3355 33.8867 85.8089 34.12 86.2222 34.44C86.6355 34.7467 86.9689 35.14 87.2222 35.62C87.4889 36.0867 87.6689 36.64 87.7622 37.28L85.3822 37.86C85.3155 37.3133 85.1555 36.88 84.9022 36.56C84.6622 36.2267 84.3622 35.9933 84.0022 35.86C83.6555 35.7133 83.2955 35.64 82.9222 35.64C82.3755 35.64 81.8955 35.7733 81.4822 36.04C81.0822 36.2933 80.7555 36.6533 80.5022 37.12C80.2489 37.5733 80.0622 38.0933 79.9422 38.68C79.8222 39.2667 79.7622 39.8867 79.7622 40.54C79.7622 40.9 79.7822 41.2933 79.8222 41.72C79.8755 42.1333 79.9422 42.5267 80.0222 42.9H80.2222C80.1955 42.14 80.2889 41.5 80.5022 40.98C80.7289 40.46 81.0355 40.0467 81.4222 39.74C81.8089 39.42 82.2355 39.1933 82.7022 39.06C83.1689 38.9133 83.6289 38.84 84.0822 38.84C84.8155 38.84 85.4889 38.9933 86.1022 39.3C86.7289 39.5933 87.2289 40.04 87.6022 40.64C87.9889 41.24 88.1822 41.98 88.1822 42.86C88.1822 43.42 88.0889 43.9667 87.9022 44.5C87.7289 45.02 87.4422 45.4933 87.0422 45.92C86.6555 46.3467 86.1422 46.6867 85.5022 46.94C84.8622 47.18 84.0822 47.3 83.1622 47.3ZM83.0422 45.24C83.4822 45.24 83.8622 45.18 84.1822 45.06C84.5022 44.94 84.7689 44.7733 84.9822 44.56C85.2089 44.3333 85.3689 44.08 85.4622 43.8C85.5689 43.52 85.6222 43.22 85.6222 42.9C85.6222 42.42 85.5155 42.0133 85.3022 41.68C85.0889 41.3333 84.8022 41.08 84.4422 40.92C84.0955 40.7467 83.7089 40.66 83.2822 40.66C82.7889 40.66 82.3489 40.7667 81.9622 40.98C81.5755 41.18 81.2689 41.4733 81.0422 41.86C80.8155 42.2333 80.7022 42.68 80.7022 43.2C80.7022 43.5867 80.7689 43.9133 80.9022 44.18C81.0355 44.4467 81.2155 44.66 81.4422 44.82C81.6689 44.9667 81.9222 45.0733 82.2022 45.14C82.4822 45.2067 82.7622 45.24 83.0422 45.24ZM95.1723 47.3C94.479 47.3 93.8523 47.22 93.2923 47.06C92.7323 46.9133 92.239 46.6933 91.8123 46.4C91.3857 46.0933 91.039 45.7067 90.7723 45.24C90.5057 44.7733 90.3323 44.2333 90.2523 43.62L92.6123 43.02C92.6923 43.46 92.819 43.82 92.9923 44.1C93.179 44.38 93.3923 44.6 93.6323 44.76C93.8723 44.9067 94.1257 45.0133 94.3923 45.08C94.659 45.1333 94.919 45.16 95.1723 45.16C95.7723 45.16 96.279 45.04 96.6923 44.8C97.119 44.5467 97.459 44.2067 97.7123 43.78C97.979 43.3533 98.1723 42.86 98.2923 42.3C98.4123 41.7267 98.4723 41.1067 98.4723 40.44C98.4723 40.1733 98.459 39.9 98.4323 39.62C98.4057 39.3267 98.3723 39.0333 98.3323 38.74C98.2923 38.4467 98.2457 38.16 98.1923 37.88H97.9723C98.0123 38.6267 97.9257 39.26 97.7123 39.78C97.5123 40.3 97.219 40.72 96.8323 41.04C96.4457 41.36 96.019 41.5933 95.5523 41.74C95.0857 41.8867 94.619 41.96 94.1523 41.96C93.4457 41.96 92.7857 41.8 92.1723 41.48C91.5723 41.16 91.0857 40.7 90.7123 40.1C90.339 39.5 90.1523 38.7667 90.1523 37.9C90.1523 37.3533 90.239 36.82 90.4123 36.3C90.5857 35.78 90.8657 35.3067 91.2523 34.88C91.639 34.4533 92.139 34.12 92.7523 33.88C93.379 33.6267 94.1323 33.5 95.0123 33.5C96.2923 33.5 97.3723 33.7733 98.2523 34.32C99.1323 34.8667 99.799 35.6667 100.252 36.72C100.719 37.7733 100.952 39.0467 100.952 40.54C100.952 42.0067 100.726 43.2467 100.272 44.26C99.8323 45.26 99.179 46.02 98.3123 46.54C97.459 47.0467 96.4123 47.3 95.1723 47.3ZM94.9923 40.14C95.459 40.14 95.879 40.0333 96.2523 39.82C96.6257 39.6067 96.919 39.3133 97.1323 38.94C97.359 38.5533 97.4723 38.1067 97.4723 37.6C97.4723 37.08 97.3523 36.6733 97.1123 36.38C96.8857 36.0733 96.599 35.86 96.2523 35.74C95.9057 35.6067 95.5523 35.54 95.1923 35.54C94.779 35.54 94.4123 35.6067 94.0923 35.74C93.7857 35.86 93.5257 36.0267 93.3123 36.24C93.1123 36.4533 92.959 36.7 92.8523 36.98C92.7457 37.26 92.6923 37.5533 92.6923 37.86C92.6923 38.34 92.7923 38.7533 92.9923 39.1C93.2057 39.4333 93.4857 39.6933 93.8323 39.88C94.179 40.0533 94.5657 40.14 94.9923 40.14ZM102.562 44.32V41.78C103.215 41.06 103.802 40.36 104.322 39.68C104.842 38.9867 105.309 38.3133 105.722 37.66C106.135 36.9933 106.489 36.34 106.782 35.7C107.089 35.0467 107.355 34.4067 107.582 33.78H111.962V47H109.442V35.54H109.262C108.902 36.42 108.502 37.2467 108.062 38.02C107.622 38.7933 107.149 39.5133 106.642 40.18C106.135 40.8467 105.609 41.48 105.062 42.08V42.26H113.722V44.32H102.562ZM120.169 47.28C119.182 47.28 118.322 47.14 117.589 46.86C116.856 46.5667 116.282 46.1533 115.869 45.62C115.469 45.0733 115.269 44.4133 115.269 43.64L117.669 43.16C117.722 43.8267 117.969 44.34 118.409 44.7C118.849 45.0467 119.429 45.22 120.149 45.22C120.976 45.22 121.609 45 122.049 44.56C122.489 44.1067 122.709 43.42 122.709 42.5C122.709 42.1267 122.669 41.78 122.589 41.46C122.509 41.1267 122.382 40.84 122.209 40.6C122.036 40.36 121.802 40.1733 121.509 40.04C121.229 39.9067 120.882 39.84 120.469 39.84C120.162 39.84 119.882 39.88 119.629 39.96C119.389 40.0267 119.176 40.1333 118.989 40.28C118.802 40.4133 118.636 40.58 118.489 40.78C118.356 40.9667 118.236 41.18 118.129 41.42H115.529L116.009 33.8H124.729V35.92H118.129L117.829 40.06H118.049C118.329 39.34 118.769 38.8067 119.369 38.46C119.969 38.1133 120.642 37.94 121.389 37.94C122.269 37.94 122.996 38.1333 123.569 38.52C124.156 38.8933 124.589 39.42 124.869 40.1C125.162 40.7667 125.309 41.56 125.309 42.48C125.309 43.6 125.089 44.5133 124.649 45.22C124.222 45.9267 123.622 46.4467 122.849 46.78C122.076 47.1133 121.182 47.28 120.169 47.28ZM128.762 47C128.762 46.08 128.855 45.1333 129.042 44.16C129.228 43.1867 129.515 42.22 129.902 41.26C130.288 40.2867 130.782 39.3533 131.382 38.46C131.982 37.5667 132.688 36.74 133.502 35.98V35.82L126.722 35.9V33.78H135.802V35.98C135.188 36.5667 134.622 37.2667 134.102 38.08C133.582 38.88 133.128 39.7533 132.742 40.7C132.368 41.6467 132.075 42.6533 131.862 43.72C131.648 44.7867 131.542 45.88 131.542 47H128.762ZM137.103 47V44.32L142.063 40.88C142.316 40.6933 142.576 40.4867 142.843 40.26C143.109 40.0333 143.356 39.78 143.583 39.5C143.809 39.22 143.989 38.92 144.123 38.6C144.269 38.28 144.343 37.9333 144.343 37.56C144.343 37.16 144.249 36.82 144.063 36.54C143.889 36.26 143.636 36.04 143.303 35.88C142.969 35.72 142.549 35.64 142.043 35.64C141.616 35.64 141.243 35.7067 140.923 35.84C140.616 35.9733 140.356 36.1733 140.143 36.44C139.943 36.6933 139.796 37.0133 139.703 37.4C139.623 37.7867 139.583 38.2333 139.583 38.74L137.163 38.28C137.136 37.2933 137.309 36.4467 137.683 35.74C138.056 35.02 138.616 34.4667 139.363 34.08C140.109 33.6933 141.023 33.5 142.103 33.5C143.049 33.5 143.876 33.6533 144.583 33.96C145.303 34.2533 145.856 34.6867 146.243 35.26C146.643 35.8333 146.843 36.54 146.843 37.38C146.843 38.02 146.736 38.6067 146.523 39.14C146.309 39.66 146.029 40.1333 145.683 40.56C145.336 40.9733 144.956 41.3467 144.543 41.68C144.129 42.0133 143.729 42.3067 143.343 42.56L140.003 44.84V45L147.103 44.9V47H137.103ZM154.861 47.3C152.968 47.3 151.515 46.7267 150.501 45.58C149.488 44.42 148.981 42.7333 148.981 40.52C148.981 39.0267 149.208 37.76 149.661 36.72C150.115 35.6667 150.775 34.8667 151.641 34.32C152.508 33.7733 153.548 33.5 154.761 33.5C155.388 33.5 155.968 33.58 156.501 33.74C157.035 33.8867 157.508 34.12 157.921 34.44C158.335 34.7467 158.668 35.14 158.921 35.62C159.188 36.0867 159.368 36.64 159.461 37.28L157.081 37.86C157.015 37.3133 156.855 36.88 156.601 36.56C156.361 36.2267 156.061 35.9933 155.701 35.86C155.355 35.7133 154.995 35.64 154.621 35.64C154.075 35.64 153.595 35.7733 153.181 36.04C152.781 36.2933 152.455 36.6533 152.201 37.12C151.948 37.5733 151.761 38.0933 151.641 38.68C151.521 39.2667 151.461 39.8867 151.461 40.54C151.461 40.9 151.481 41.2933 151.521 41.72C151.575 42.1333 151.641 42.5267 151.721 42.9H151.921C151.895 42.14 151.988 41.5 152.201 40.98C152.428 40.46 152.735 40.0467 153.121 39.74C153.508 39.42 153.935 39.1933 154.401 39.06C154.868 38.9133 155.328 38.84 155.781 38.84C156.515 38.84 157.188 38.9933 157.801 39.3C158.428 39.5933 158.928 40.04 159.301 40.64C159.688 41.24 159.881 41.98 159.881 42.86C159.881 43.42 159.788 43.9667 159.601 44.5C159.428 45.02 159.141 45.4933 158.741 45.92C158.355 46.3467 157.841 46.6867 157.201 46.94C156.561 47.18 155.781 47.3 154.861 47.3ZM154.741 45.24C155.181 45.24 155.561 45.18 155.881 45.06C156.201 44.94 156.468 44.7733 156.681 44.56C156.908 44.3333 157.068 44.08 157.161 43.8C157.268 43.52 157.321 43.22 157.321 42.9C157.321 42.42 157.215 42.0133 157.001 41.68C156.788 41.3333 156.501 41.08 156.141 40.92C155.795 40.7467 155.408 40.66 154.981 40.66C154.488 40.66 154.048 40.7667 153.661 40.98C153.275 41.18 152.968 41.4733 152.741 41.86C152.515 42.2333 152.401 42.68 152.401 43.2C152.401 43.5867 152.468 43.9133 152.601 44.18C152.735 44.4467 152.915 44.66 153.141 44.82C153.368 44.9667 153.621 45.0733 153.901 45.14C154.181 45.2067 154.461 45.24 154.741 45.24ZM163.234 47C163.234 46.08 163.328 45.1333 163.514 44.16C163.701 43.1867 163.988 42.22 164.374 41.26C164.761 40.2867 165.254 39.3533 165.854 38.46C166.454 37.5667 167.161 36.74 167.974 35.98V35.82L161.194 35.9V33.78H170.274V35.98C169.661 36.5667 169.094 37.2667 168.574 38.08C168.054 38.88 167.601 39.7533 167.214 40.7C166.841 41.6467 166.548 42.6533 166.334 43.72C166.121 44.7867 166.014 45.88 166.014 47H163.234ZM169.984 44.32V41.78C170.637 41.06 171.224 40.36 171.744 39.68C172.264 38.9867 172.731 38.3133 173.144 37.66C173.557 36.9933 173.911 36.34 174.204 35.7C174.511 35.0467 174.777 34.4067 175.004 33.78H179.384V47H176.864V35.54H176.684C176.324 36.42 175.924 37.2467 175.484 38.02C175.044 38.7933 174.571 39.5133 174.064 40.18C173.557 40.8467 173.031 41.48 172.484 42.08V42.26H181.144V44.32H169.984ZM187.591 47.28C186.604 47.28 185.744 47.14 185.011 46.86C184.278 46.5667 183.704 46.1533 183.291 45.62C182.891 45.0733 182.691 44.4133 182.691 43.64L185.091 43.16C185.144 43.8267 185.391 44.34 185.831 44.7C186.271 45.0467 186.851 45.22 187.571 45.22C188.398 45.22 189.031 45 189.471 44.56C189.911 44.1067 190.131 43.42 190.131 42.5C190.131 42.1267 190.091 41.78 190.011 41.46C189.931 41.1267 189.804 40.84 189.631 40.6C189.458 40.36 189.224 40.1733 188.931 40.04C188.651 39.9067 188.304 39.84 187.891 39.84C187.584 39.84 187.304 39.88 187.051 39.96C186.811 40.0267 186.598 40.1333 186.411 40.28C186.224 40.4133 186.058 40.58 185.911 40.78C185.778 40.9667 185.658 41.18 185.551 41.42H182.951L183.431 33.8H192.151V35.92H185.551L185.251 40.06H185.471C185.751 39.34 186.191 38.8067 186.791 38.46C187.391 38.1133 188.064 37.94 188.811 37.94C189.691 37.94 190.418 38.1333 190.991 38.52C191.578 38.8933 192.011 39.42 192.291 40.1C192.584 40.7667 192.731 41.56 192.731 42.48C192.731 43.6 192.511 44.5133 192.071 45.22C191.644 45.9267 191.044 46.4467 190.271 46.78C189.498 47.1133 188.604 47.28 187.591 47.28ZM200.604 47.3C198.71 47.3 197.257 46.7267 196.244 45.58C195.23 44.42 194.724 42.7333 194.724 40.52C194.724 39.0267 194.95 37.76 195.404 36.72C195.857 35.6667 196.517 34.8667 197.384 34.32C198.25 33.7733 199.29 33.5 200.504 33.5C201.13 33.5 201.71 33.58 202.244 33.74C202.777 33.8867 203.25 34.12 203.664 34.44C204.077 34.7467 204.41 35.14 204.664 35.62C204.93 36.0867 205.11 36.64 205.204 37.28L202.824 37.86C202.757 37.3133 202.597 36.88 202.344 36.56C202.104 36.2267 201.804 35.9933 201.444 35.86C201.097 35.7133 200.737 35.64 200.364 35.64C199.817 35.64 199.337 35.7733 198.924 36.04C198.524 36.2933 198.197 36.6533 197.944 37.12C197.69 37.5733 197.504 38.0933 197.384 38.68C197.264 39.2667 197.204 39.8867 197.204 40.54C197.204 40.9 197.224 41.2933 197.264 41.72C197.317 42.1333 197.384 42.5267 197.464 42.9H197.664C197.637 42.14 197.73 41.5 197.944 40.98C198.17 40.46 198.477 40.0467 198.864 39.74C199.25 39.42 199.677 39.1933 200.144 39.06C200.61 38.9133 201.07 38.84 201.524 38.84C202.257 38.84 202.93 38.9933 203.544 39.3C204.17 39.5933 204.67 40.04 205.044 40.64C205.43 41.24 205.624 41.98 205.624 42.86C205.624 43.42 205.53 43.9667 205.344 44.5C205.17 45.02 204.884 45.4933 204.484 45.92C204.097 46.3467 203.584 46.6867 202.944 46.94C202.304 47.18 201.524 47.3 200.604 47.3ZM200.484 45.24C200.924 45.24 201.304 45.18 201.624 45.06C201.944 44.94 202.21 44.7733 202.424 44.56C202.65 44.3333 202.81 44.08 202.904 43.8C203.01 43.52 203.064 43.22 203.064 42.9C203.064 42.42 202.957 42.0133 202.744 41.68C202.53 41.3333 202.244 41.08 201.884 40.92C201.537 40.7467 201.15 40.66 200.724 40.66C200.23 40.66 199.79 40.7667 199.404 40.98C199.017 41.18 198.71 41.4733 198.484 41.86C198.257 42.2333 198.144 42.68 198.144 43.2C198.144 43.5867 198.21 43.9133 198.344 44.18C198.477 44.4467 198.657 44.66 198.884 44.82C199.11 44.9667 199.364 45.0733 199.644 45.14C199.924 45.2067 200.204 45.24 200.484 45.24Z" fill="white"/>
<rect x="0.5" y="0.5" width="247" height="57" rx="9.5" stroke="white"/>
</svg>
