<svg width="259" height="58" viewBox="0 0 259 58" fill="none" xmlns="http://www.w3.org/2000/svg">
<path d="M16.7501 14.75H45.2501C46.1246 14.75 46.8334 15.4589 46.8334 16.3333V41.6667C46.8334 42.5411 46.1246 43.25 45.2501 43.25H16.7501C15.8756 43.25 15.1667 42.5411 15.1667 41.6667V16.3333C15.1667 15.4589 15.8756 14.75 16.7501 14.75ZM43.6667 21.46L31.1138 32.7018L18.3334 21.4252V40.0833H43.6667V21.46ZM19.1432 17.9167L31.0981 28.4648L42.8767 17.9167H19.1432Z" fill="white"/>
<path d="M63.5311 25V14.44H65.0031V25H63.5311ZM64.2831 25V23.736H70.9231V25H64.2831ZM64.2831 20.2V19.016H70.1711V20.2H64.2831ZM64.2831 15.704V14.44H70.9071V15.704H64.2831ZM75.7728 25.208C75.1968 25.208 74.6848 25.144 74.2368 25.016C73.7994 24.8987 73.4261 24.728 73.1168 24.504C72.8181 24.2693 72.5888 23.992 72.4288 23.672C72.2688 23.3413 72.1888 22.9733 72.1888 22.568L73.4208 22.264C73.4101 22.6373 73.5008 22.9573 73.6928 23.224C73.8848 23.48 74.1621 23.6773 74.5248 23.816C74.8981 23.9547 75.3408 24.024 75.8528 24.024C76.4928 24.024 76.9834 23.9173 77.3248 23.704C77.6768 23.4907 77.8528 23.1973 77.8528 22.824C77.8528 22.5253 77.7568 22.296 77.5648 22.136C77.3728 21.9653 77.1061 21.832 76.7648 21.736C76.4234 21.64 76.0288 21.544 75.5807 21.448C75.1861 21.3627 74.7968 21.2667 74.4128 21.16C74.0288 21.0533 73.6768 20.9147 73.3568 20.744C73.0474 20.5627 72.7968 20.3333 72.6048 20.056C72.4128 19.768 72.3168 19.4053 72.3168 18.968C72.3168 18.4667 72.4501 18.0347 72.7168 17.672C72.9834 17.3093 73.3621 17.0267 73.8528 16.824C74.3434 16.6213 74.9301 16.52 75.6128 16.52C76.2848 16.52 76.8608 16.6267 77.3408 16.84C77.8314 17.0427 78.2154 17.336 78.4928 17.72C78.7701 18.0933 78.9248 18.5413 78.9568 19.064L77.6928 19.368C77.6821 19.0053 77.5861 18.7013 77.4048 18.456C77.2341 18.2 76.9888 18.0133 76.6688 17.896C76.3488 17.768 75.9754 17.704 75.5488 17.704C74.9834 17.704 74.5354 17.8107 74.2048 18.024C73.8848 18.2373 73.7248 18.5307 73.7248 18.904C73.7248 19.192 73.8208 19.4213 74.0128 19.592C74.2154 19.7627 74.4821 19.896 74.8128 19.992C75.1541 20.0773 75.5381 20.168 75.9648 20.264C76.3808 20.3493 76.7808 20.4453 77.1648 20.552C77.5594 20.6587 77.9114 20.7973 78.2208 20.968C78.5301 21.1387 78.7754 21.368 78.9568 21.656C79.1381 21.9333 79.2288 22.296 79.2288 22.744C79.2288 23.2773 79.0848 23.7307 78.7968 24.104C78.5088 24.4667 78.1088 24.744 77.5968 24.936C77.0848 25.1173 76.4768 25.208 75.7728 25.208ZM84.7215 25.208C84.0068 25.208 83.3935 25.096 82.8815 24.872C82.3802 24.6373 81.9695 24.3227 81.6495 23.928C81.3402 23.5227 81.1108 23.064 80.9615 22.552C80.8122 22.04 80.7375 21.5067 80.7375 20.952C80.7375 20.3333 80.8175 19.7573 80.9775 19.224C81.1375 18.6907 81.3775 18.2213 81.6975 17.816C82.0282 17.4107 82.4388 17.096 82.9295 16.872C83.4202 16.6373 83.9855 16.52 84.6255 16.52C85.1055 16.52 85.5428 16.584 85.9375 16.712C86.3322 16.84 86.6735 17.0213 86.9615 17.256C87.2602 17.4907 87.5002 17.7733 87.6815 18.104C87.8628 18.4347 87.9855 18.8027 88.0495 19.208L86.6575 19.592C86.6362 19.272 86.5455 18.9733 86.3855 18.696C86.2362 18.4187 86.0122 18.1947 85.7135 18.024C85.4148 17.8427 85.0468 17.752 84.6095 17.752C84.2255 17.752 83.8842 17.8267 83.5855 17.976C83.2975 18.1253 83.0522 18.3387 82.8495 18.616C82.6468 18.8933 82.4868 19.224 82.3695 19.608C82.2628 19.992 82.2095 20.4293 82.2095 20.92C82.2095 21.56 82.3002 22.1093 82.4815 22.568C82.6735 23.0267 82.9562 23.3787 83.3295 23.624C83.7135 23.8693 84.1828 23.992 84.7375 23.992C85.1855 23.992 85.5642 23.912 85.8735 23.752C86.1828 23.592 86.4228 23.368 86.5935 23.08C86.7748 22.792 86.8922 22.456 86.9455 22.072L88.2735 22.36C88.2095 22.8187 88.0762 23.2293 87.8735 23.592C87.6815 23.944 87.4308 24.2427 87.1215 24.488C86.8228 24.7227 86.4708 24.8987 86.0655 25.016C85.6602 25.144 85.2122 25.208 84.7215 25.208ZM89.9035 25V20.568V16.728H91.2315L91.0875 19.688H91.3435C91.4395 19.0373 91.5888 18.4773 91.7915 18.008C91.9942 17.5387 92.2662 17.176 92.6075 16.92C92.9488 16.6533 93.3595 16.52 93.8395 16.52C93.9568 16.52 94.0848 16.5307 94.2235 16.552C94.3622 16.5733 94.5222 16.6107 94.7035 16.664L94.6235 18.2C94.4635 18.136 94.3035 18.088 94.1435 18.056C93.9835 18.024 93.8288 18.008 93.6795 18.008C93.2635 18.008 92.9008 18.1467 92.5915 18.424C92.2928 18.7013 92.0422 19.0747 91.8395 19.544C91.6475 20.0027 91.4875 20.5307 91.3595 21.128V25H89.9035ZM96.2164 25V16.728H97.6724V25H96.2164ZM96.9364 15.32C96.6057 15.32 96.355 15.2507 96.1844 15.112C96.0137 14.9733 95.9284 14.7707 95.9284 14.504C95.9284 14.2267 96.0137 14.0187 96.1844 13.88C96.355 13.7413 96.6057 13.672 96.9364 13.672C97.2777 13.672 97.5337 13.7413 97.7044 13.88C97.875 14.0187 97.9604 14.2267 97.9604 14.504C97.9604 14.7707 97.875 14.9733 97.7044 15.112C97.5337 15.2507 97.2777 15.32 96.9364 15.32ZM104.41 25.208C103.877 25.208 103.418 25.1013 103.034 24.888C102.661 24.664 102.357 24.3653 102.122 23.992C101.888 23.6187 101.712 23.192 101.594 22.712H101.354L101.434 25H100.122V20.952V13.832H101.594V16.376C101.594 16.6533 101.578 16.952 101.546 17.272C101.525 17.5813 101.488 17.9013 101.434 18.232C101.392 18.552 101.344 18.872 101.29 19.192H101.562C101.68 18.7227 101.85 18.2853 102.074 17.88C102.298 17.4747 102.602 17.1493 102.986 16.904C103.37 16.6587 103.85 16.536 104.426 16.536C105.109 16.536 105.696 16.7173 106.186 17.08C106.688 17.4427 107.072 17.9493 107.338 18.6C107.605 19.2507 107.738 20.008 107.738 20.872C107.738 21.7253 107.605 22.4773 107.338 23.128C107.082 23.7787 106.704 24.2907 106.202 24.664C105.712 25.0267 105.114 25.208 104.41 25.208ZM104.058 23.928C104.517 23.928 104.906 23.8053 105.226 23.56C105.546 23.3147 105.792 22.9627 105.962 22.504C106.133 22.0453 106.218 21.512 106.218 20.904C106.218 20.3067 106.133 19.7787 105.962 19.32C105.802 18.8507 105.557 18.4827 105.226 18.216C104.906 17.9387 104.512 17.8 104.042 17.8C103.712 17.8 103.413 17.8693 103.146 18.008C102.88 18.1467 102.645 18.328 102.442 18.552C102.25 18.776 102.09 19.0213 101.962 19.288C101.834 19.5547 101.738 19.8213 101.674 20.088C101.61 20.3547 101.578 20.5947 101.578 20.808V21C101.578 21.3093 101.632 21.64 101.738 21.992C101.856 22.3333 102.021 22.6533 102.234 22.952C102.448 23.24 102.709 23.4747 103.018 23.656C103.328 23.8373 103.674 23.928 104.058 23.928ZM113.331 25.208C112.67 25.208 112.089 25.112 111.587 24.92C111.097 24.7173 110.681 24.4293 110.339 24.056C110.009 23.6827 109.753 23.24 109.571 22.728C109.401 22.2053 109.315 21.6293 109.315 21C109.315 20.3493 109.401 19.752 109.571 19.208C109.742 18.664 109.993 18.1947 110.323 17.8C110.654 17.3947 111.059 17.08 111.539 16.856C112.019 16.632 112.569 16.52 113.187 16.52C113.742 16.52 114.238 16.616 114.675 16.808C115.123 16.9893 115.502 17.2667 115.811 17.64C116.131 18.0133 116.371 18.4827 116.531 19.048C116.691 19.6133 116.755 20.28 116.723 21.048L110.243 21.096V20.104L115.811 20.056L115.331 20.728C115.385 20.0667 115.321 19.5173 115.139 19.08C114.969 18.6427 114.713 18.312 114.371 18.088C114.041 17.864 113.646 17.752 113.187 17.752C112.697 17.752 112.265 17.88 111.891 18.136C111.529 18.392 111.246 18.76 111.043 19.24C110.841 19.72 110.739 20.3013 110.739 20.984C110.739 21.9653 110.958 22.7173 111.395 23.24C111.843 23.752 112.494 24.008 113.347 24.008C113.689 24.008 113.982 23.9653 114.227 23.88C114.483 23.7947 114.697 23.6827 114.867 23.544C115.049 23.3947 115.193 23.224 115.299 23.032C115.417 22.8293 115.502 22.616 115.555 22.392L116.851 22.664C116.755 23.0587 116.611 23.416 116.419 23.736C116.227 24.0453 115.982 24.312 115.683 24.536C115.395 24.7493 115.054 24.9147 114.659 25.032C114.265 25.1493 113.822 25.208 113.331 25.208ZM118.716 25V19.976V16.728H120.044L119.884 19.448H120.14C120.289 18.7547 120.492 18.1947 120.748 17.768C121.015 17.3307 121.34 17.016 121.724 16.824C122.119 16.6213 122.561 16.52 123.052 16.52C123.521 16.52 123.916 16.6 124.236 16.76C124.567 16.92 124.833 17.1333 125.036 17.4C125.249 17.6667 125.415 17.9707 125.532 18.312C125.649 18.6533 125.729 19.0107 125.772 19.384C125.825 19.7573 125.852 20.1253 125.852 20.488V25H124.38V20.696C124.38 20.4613 124.364 20.184 124.332 19.864C124.311 19.544 124.247 19.2293 124.14 18.92C124.033 18.6107 123.863 18.3493 123.628 18.136C123.393 17.9227 123.068 17.816 122.652 17.816C122.14 17.816 121.703 17.9813 121.34 18.312C120.988 18.632 120.711 19.064 120.508 19.608C120.316 20.1413 120.204 20.728 120.172 21.368V25H118.716ZM131.738 25.208C130.948 25.208 130.25 25.0373 129.642 24.696C129.044 24.3547 128.575 23.8587 128.234 23.208C127.892 22.5573 127.722 21.7627 127.722 20.824C127.722 19.864 127.898 19.0693 128.25 18.44C128.612 17.8 129.092 17.32 129.69 17C130.287 16.68 130.959 16.52 131.706 16.52C132.463 16.52 133.14 16.6907 133.738 17.032C134.346 17.3627 134.826 17.8533 135.178 18.504C135.53 19.144 135.706 19.9387 135.706 20.888C135.706 21.848 135.53 22.648 135.178 23.288C134.836 23.928 134.362 24.408 133.754 24.728C133.156 25.048 132.484 25.208 131.738 25.208ZM131.786 24.008C132.074 24.008 132.362 23.96 132.65 23.864C132.938 23.7573 133.199 23.5867 133.434 23.352C133.679 23.1173 133.876 22.8027 134.026 22.408C134.175 22.0133 134.25 21.5227 134.25 20.936C134.25 20.3387 134.17 19.8373 134.01 19.432C133.86 19.0267 133.658 18.7013 133.402 18.456C133.156 18.2107 132.879 18.0347 132.57 17.928C132.26 17.8107 131.956 17.752 131.658 17.752C131.38 17.752 131.098 17.8053 130.81 17.912C130.522 18.008 130.255 18.1733 130.01 18.408C129.764 18.632 129.567 18.9413 129.418 19.336C129.268 19.72 129.194 20.2053 129.194 20.792C129.194 21.3893 129.268 21.896 129.418 22.312C129.567 22.7173 129.764 23.048 130.01 23.304C130.266 23.5493 130.548 23.7307 130.858 23.848C131.167 23.9547 131.476 24.008 131.786 24.008ZM140.835 25.208C140.259 25.208 139.747 25.144 139.299 25.016C138.862 24.8987 138.489 24.728 138.179 24.504C137.881 24.2693 137.651 23.992 137.491 23.672C137.331 23.3413 137.251 22.9733 137.251 22.568L138.483 22.264C138.473 22.6373 138.563 22.9573 138.755 23.224C138.947 23.48 139.225 23.6773 139.587 23.816C139.961 23.9547 140.403 24.024 140.915 24.024C141.555 24.024 142.046 23.9173 142.387 23.704C142.739 23.4907 142.915 23.1973 142.915 22.824C142.915 22.5253 142.819 22.296 142.627 22.136C142.435 21.9653 142.169 21.832 141.827 21.736C141.486 21.64 141.091 21.544 140.643 21.448C140.249 21.3627 139.859 21.2667 139.475 21.16C139.091 21.0533 138.739 20.9147 138.419 20.744C138.11 20.5627 137.859 20.3333 137.667 20.056C137.475 19.768 137.379 19.4053 137.379 18.968C137.379 18.4667 137.513 18.0347 137.779 17.672C138.046 17.3093 138.425 17.0267 138.915 16.824C139.406 16.6213 139.993 16.52 140.675 16.52C141.347 16.52 141.923 16.6267 142.403 16.84C142.894 17.0427 143.278 17.336 143.555 17.72C143.833 18.0933 143.987 18.5413 144.019 19.064L142.755 19.368C142.745 19.0053 142.649 18.7013 142.467 18.456C142.297 18.2 142.051 18.0133 141.731 17.896C141.411 17.768 141.038 17.704 140.611 17.704C140.046 17.704 139.598 17.8107 139.267 18.024C138.947 18.2373 138.787 18.5307 138.787 18.904C138.787 19.192 138.883 19.4213 139.075 19.592C139.278 19.7627 139.545 19.896 139.875 19.992C140.217 20.0773 140.601 20.168 141.027 20.264C141.443 20.3493 141.843 20.4453 142.227 20.552C142.622 20.6587 142.974 20.7973 143.283 20.968C143.593 21.1387 143.838 21.368 144.019 21.656C144.201 21.9333 144.291 22.296 144.291 22.744C144.291 23.2773 144.147 23.7307 143.859 24.104C143.571 24.4667 143.171 24.744 142.659 24.936C142.147 25.1173 141.539 25.208 140.835 25.208ZM152.105 25.208C151.646 25.208 151.236 25.1227 150.873 24.952C150.51 24.7813 150.222 24.5253 150.009 24.184C149.796 23.8427 149.689 23.416 149.689 22.904C149.689 22.3493 149.806 21.9067 150.041 21.576C150.276 21.2453 150.58 20.9893 150.953 20.808C151.326 20.616 151.732 20.4773 152.169 20.392C152.617 20.3067 153.054 20.232 153.481 20.168C153.918 20.104 154.26 20.0453 154.505 19.992C154.761 19.928 154.942 19.8427 155.049 19.736C155.156 19.6187 155.209 19.448 155.209 19.224C155.209 18.936 155.145 18.68 155.017 18.456C154.889 18.232 154.702 18.056 154.457 17.928C154.212 17.8 153.892 17.736 153.497 17.736C153.177 17.736 152.857 17.7893 152.537 17.896C152.217 18.0027 151.94 18.184 151.705 18.44C151.47 18.696 151.316 19.048 151.241 19.496L149.913 19.064C149.998 18.6587 150.137 18.3013 150.329 17.992C150.532 17.6827 150.782 17.416 151.081 17.192C151.39 16.968 151.748 16.8027 152.153 16.696C152.558 16.5787 153.001 16.52 153.481 16.52C154.142 16.52 154.681 16.616 155.097 16.808C155.513 16.9893 155.833 17.2453 156.057 17.576C156.281 17.896 156.436 18.2533 156.521 18.648C156.606 19.0427 156.649 19.4427 156.649 19.848V21.624C156.649 21.9653 156.654 22.3333 156.665 22.728C156.686 23.112 156.708 23.5013 156.729 23.896C156.761 24.2907 156.793 24.6587 156.825 25H155.481C155.46 24.648 155.438 24.296 155.417 23.944C155.396 23.592 155.38 23.2347 155.369 22.872H155.161C155.012 23.288 154.804 23.672 154.537 24.024C154.27 24.376 153.934 24.664 153.529 24.888C153.124 25.1013 152.649 25.208 152.105 25.208ZM152.521 24.024C152.766 24.024 153.012 23.9867 153.257 23.912C153.502 23.8267 153.748 23.6987 153.993 23.528C154.238 23.3467 154.462 23.1173 154.665 22.84C154.878 22.5627 155.065 22.2267 155.225 21.832V20.344L155.657 20.408C155.486 20.5787 155.257 20.712 154.969 20.808C154.692 20.8933 154.382 20.9627 154.041 21.016C153.7 21.0587 153.358 21.112 153.017 21.176C152.676 21.24 152.361 21.3253 152.073 21.432C151.796 21.5387 151.566 21.6987 151.385 21.912C151.214 22.1147 151.129 22.392 151.129 22.744C151.129 23.16 151.257 23.48 151.513 23.704C151.769 23.9173 152.105 24.024 152.521 24.024Z" fill="white"/>
<path d="M65.9665 45.26C65.3932 45.26 64.8732 45.1533 64.4065 44.94C63.9532 44.7133 63.5932 44.3867 63.3265 43.96C63.0732 43.52 62.9465 42.9867 62.9465 42.36C62.9465 41.6533 63.0998 41.0867 63.4065 40.66C63.7265 40.2333 64.1332 39.9067 64.6265 39.68C65.1332 39.4533 65.6665 39.2867 66.2265 39.18C66.7998 39.0733 67.3398 38.9867 67.8465 38.92C68.3398 38.84 68.7265 38.7667 69.0065 38.7C69.2998 38.6333 69.5132 38.5333 69.6465 38.4C69.7798 38.2533 69.8465 38.0533 69.8465 37.8C69.8465 37.5067 69.7798 37.2467 69.6465 37.02C69.5132 36.78 69.3132 36.5933 69.0465 36.46C68.7798 36.3267 68.4332 36.26 68.0065 36.26C67.6198 36.26 67.2465 36.3267 66.8865 36.46C66.5398 36.5933 66.2398 36.8067 65.9865 37.1C65.7465 37.38 65.5798 37.7533 65.4865 38.22L63.2265 37.56C63.3598 37.0133 63.5665 36.54 63.8465 36.14C64.1265 35.7267 64.4732 35.38 64.8865 35.1C65.2998 34.82 65.7665 34.6133 66.2865 34.48C66.8198 34.3467 67.3932 34.28 68.0065 34.28C68.8332 34.28 69.5198 34.3867 70.0665 34.6C70.6265 34.8133 71.0665 35.12 71.3865 35.52C71.7198 35.92 71.9598 36.4 72.1065 36.96C72.2532 37.5067 72.3265 38.1133 72.3265 38.78V40.72C72.3265 41.1733 72.3332 41.6467 72.3465 42.14C72.3732 42.62 72.3998 43.1067 72.4265 43.6C72.4532 44.08 72.4932 44.5467 72.5465 45H70.2865C70.2465 44.6133 70.2065 44.2067 70.1665 43.78C70.1265 43.34 70.0998 42.8933 70.0865 42.44H69.7665C69.5932 42.9467 69.3332 43.42 68.9865 43.86C68.6398 44.2867 68.2132 44.6267 67.7065 44.88C67.1998 45.1333 66.6198 45.26 65.9665 45.26ZM66.9465 43.38C67.2132 43.38 67.4865 43.3333 67.7665 43.24C68.0465 43.1467 68.3198 43.0067 68.5865 42.82C68.8532 42.6333 69.0998 42.3933 69.3265 42.1C69.5532 41.8067 69.7398 41.4667 69.8865 41.08L69.8465 39.4L70.3465 39.48C70.1198 39.6667 69.8398 39.8133 69.5065 39.92C69.1865 40.0267 68.8398 40.1133 68.4665 40.18C68.1065 40.2333 67.7398 40.2933 67.3665 40.36C67.0065 40.4267 66.6732 40.52 66.3665 40.64C66.0732 40.7467 65.8398 40.9067 65.6665 41.12C65.4932 41.3333 65.4065 41.62 65.4065 41.98C65.4065 42.42 65.5465 42.7667 65.8265 43.02C66.1198 43.26 66.4932 43.38 66.9465 43.38ZM78.7509 45.26C77.8842 45.26 77.1242 45.04 76.4709 44.6C75.8309 44.1467 75.3375 43.5067 74.9909 42.68C74.6442 41.8533 74.4709 40.88 74.4709 39.76C74.4709 38.6933 74.6309 37.7533 74.9509 36.94C75.2709 36.1133 75.7375 35.4667 76.3509 35C76.9775 34.5333 77.7442 34.3 78.6509 34.3C79.3442 34.3 79.9242 34.44 80.3909 34.72C80.8575 34.9867 81.2375 35.3733 81.5309 35.88C81.8242 36.3733 82.0509 36.9533 82.2109 37.62H82.6109C82.5442 37.1933 82.4709 36.7733 82.3909 36.36C82.3242 35.9333 82.2709 35.5333 82.2309 35.16C82.1909 34.7733 82.1709 34.4267 82.1709 34.12V30.84H84.7109V39.94V45H82.5709L82.6109 42H82.2509C82.0909 42.7067 81.8575 43.3067 81.5509 43.8C81.2575 44.28 80.8775 44.6467 80.4109 44.9C79.9442 45.14 79.3909 45.26 78.7509 45.26ZM79.5309 43.18C79.9709 43.18 80.3575 43.08 80.6909 42.88C81.0242 42.6667 81.2975 42.4 81.5109 42.08C81.7375 41.76 81.9042 41.4133 82.0109 41.04C82.1309 40.6667 82.1909 40.3067 82.1909 39.96V39.64C82.1909 39.3733 82.1509 39.0933 82.0709 38.8C82.0042 38.5067 81.8975 38.22 81.7509 37.94C81.6175 37.6467 81.4442 37.3867 81.2309 37.16C81.0175 36.92 80.7642 36.7333 80.4709 36.6C80.1909 36.4533 79.8709 36.38 79.5109 36.38C79.0042 36.38 78.5709 36.5267 78.2109 36.82C77.8509 37.1133 77.5775 37.52 77.3909 38.04C77.2042 38.5467 77.1109 39.1333 77.1109 39.8C77.1109 40.48 77.2042 41.0733 77.3909 41.58C77.5909 42.0867 77.8709 42.48 78.2309 42.76C78.6042 43.04 79.0375 43.18 79.5309 43.18ZM92.1123 45.26C91.0723 45.26 90.1589 45.0533 89.3723 44.64C88.5989 44.2133 87.9856 43.5933 87.5323 42.78C87.0923 41.9533 86.8723 40.94 86.8723 39.74C86.8723 38.5133 87.0989 37.5 87.5523 36.7C88.0056 35.8867 88.6256 35.28 89.4123 34.88C90.1989 34.48 91.0923 34.28 92.0923 34.28C93.1056 34.28 94.0056 34.4867 94.7923 34.9C95.5789 35.3133 96.1989 35.9333 96.6523 36.76C97.1056 37.5733 97.3323 38.5867 97.3323 39.8C97.3323 41.0267 97.0989 42.0467 96.6323 42.86C96.1789 43.6733 95.5589 44.28 94.7723 44.68C93.9856 45.0667 93.0989 45.26 92.1123 45.26ZM92.1923 43.34C92.5256 43.34 92.8456 43.2867 93.1523 43.18C93.4589 43.06 93.7323 42.8733 93.9723 42.62C94.2256 42.3533 94.4256 42 94.5723 41.56C94.7189 41.1067 94.7923 40.56 94.7923 39.92C94.7923 39.24 94.7123 38.6733 94.5523 38.22C94.3923 37.7533 94.1789 37.38 93.9123 37.1C93.6589 36.8067 93.3656 36.6 93.0323 36.48C92.6989 36.3467 92.3589 36.28 92.0123 36.28C91.6923 36.28 91.3789 36.34 91.0723 36.46C90.7656 36.5667 90.4856 36.7533 90.2323 37.02C89.9923 37.2733 89.7923 37.62 89.6323 38.06C89.4856 38.5 89.4123 39.0467 89.4123 39.7C89.4123 40.38 89.4856 40.9533 89.6323 41.42C89.7923 41.8733 90.0056 42.2467 90.2723 42.54C90.5389 42.82 90.8323 43.0267 91.1523 43.16C91.4856 43.28 91.8323 43.34 92.1923 43.34ZM99.483 48.28V39.74V34.54H101.623L101.583 37.42L101.923 37.44C102.056 36.76 102.27 36.1867 102.563 35.72C102.87 35.24 103.256 34.88 103.723 34.64C104.19 34.4 104.743 34.28 105.383 34.28C106.303 34.28 107.083 34.5133 107.723 34.98C108.376 35.4333 108.876 36.0733 109.223 36.9C109.57 37.7267 109.743 38.7 109.743 39.82C109.743 40.8733 109.583 41.8133 109.263 42.64C108.943 43.4533 108.47 44.0933 107.843 44.56C107.216 45.0267 106.443 45.26 105.523 45.26C104.843 45.26 104.27 45.1267 103.803 44.86C103.336 44.5933 102.956 44.22 102.663 43.74C102.37 43.26 102.13 42.7067 101.943 42.08H101.603C101.67 42.4533 101.736 42.8333 101.803 43.22C101.87 43.6067 101.923 43.9867 101.963 44.36C102.003 44.72 102.023 45.0667 102.023 45.4V48.28H99.483ZM104.703 43.2C105.21 43.2 105.643 43.06 106.003 42.78C106.363 42.4867 106.636 42.0867 106.823 41.58C107.01 41.06 107.103 40.4667 107.103 39.8C107.103 39.1067 107.003 38.5133 106.803 38.02C106.616 37.5133 106.336 37.12 105.963 36.84C105.603 36.5467 105.17 36.4 104.663 36.4C104.223 36.4 103.836 36.5 103.503 36.7C103.17 36.9 102.89 37.16 102.663 37.48C102.45 37.8 102.283 38.1533 102.163 38.54C102.056 38.9133 102.003 39.28 102.003 39.64V39.96C102.003 40.2267 102.036 40.5067 102.103 40.8C102.183 41.0933 102.296 41.3867 102.443 41.68C102.59 41.96 102.77 42.22 102.983 42.46C103.196 42.6867 103.45 42.8667 103.743 43C104.036 43.1333 104.356 43.2 104.703 43.2ZM115.585 45.24C115.065 45.24 114.598 45.1667 114.185 45.02C113.785 44.8867 113.445 44.6733 113.165 44.38C112.898 44.0733 112.698 43.6933 112.565 43.24C112.432 42.7733 112.365 42.22 112.365 41.58V36.56H110.845L110.885 34.58H111.845C112.258 34.58 112.558 34.5133 112.745 34.38C112.932 34.2333 113.052 33.9933 113.105 33.66L113.325 32.22H114.785V34.54H117.545V36.64H114.785V41.48C114.785 42.0267 114.918 42.4 115.185 42.6C115.452 42.8 115.785 42.9 116.185 42.9C116.425 42.9 116.665 42.8733 116.905 42.82C117.158 42.7533 117.392 42.6467 117.605 42.5V44.9C117.205 45.0333 116.832 45.12 116.485 45.16C116.152 45.2133 115.852 45.24 115.585 45.24ZM122.041 45.26C121.467 45.26 120.947 45.1533 120.481 44.94C120.027 44.7133 119.667 44.3867 119.401 43.96C119.147 43.52 119.021 42.9867 119.021 42.36C119.021 41.6533 119.174 41.0867 119.481 40.66C119.801 40.2333 120.207 39.9067 120.701 39.68C121.207 39.4533 121.741 39.2867 122.301 39.18C122.874 39.0733 123.414 38.9867 123.921 38.92C124.414 38.84 124.801 38.7667 125.081 38.7C125.374 38.6333 125.587 38.5333 125.721 38.4C125.854 38.2533 125.921 38.0533 125.921 37.8C125.921 37.5067 125.854 37.2467 125.721 37.02C125.587 36.78 125.387 36.5933 125.121 36.46C124.854 36.3267 124.507 36.26 124.081 36.26C123.694 36.26 123.321 36.3267 122.961 36.46C122.614 36.5933 122.314 36.8067 122.061 37.1C121.821 37.38 121.654 37.7533 121.561 38.22L119.301 37.56C119.434 37.0133 119.641 36.54 119.921 36.14C120.201 35.7267 120.547 35.38 120.961 35.1C121.374 34.82 121.841 34.6133 122.361 34.48C122.894 34.3467 123.467 34.28 124.081 34.28C124.907 34.28 125.594 34.3867 126.141 34.6C126.701 34.8133 127.141 35.12 127.461 35.52C127.794 35.92 128.034 36.4 128.181 36.96C128.327 37.5067 128.401 38.1133 128.401 38.78V40.72C128.401 41.1733 128.407 41.6467 128.421 42.14C128.447 42.62 128.474 43.1067 128.501 43.6C128.527 44.08 128.567 44.5467 128.621 45H126.361C126.321 44.6133 126.281 44.2067 126.241 43.78C126.201 43.34 126.174 42.8933 126.161 42.44H125.841C125.667 42.9467 125.407 43.42 125.061 43.86C124.714 44.2867 124.287 44.6267 123.781 44.88C123.274 45.1333 122.694 45.26 122.041 45.26ZM123.021 43.38C123.287 43.38 123.561 43.3333 123.841 43.24C124.121 43.1467 124.394 43.0067 124.661 42.82C124.927 42.6333 125.174 42.3933 125.401 42.1C125.627 41.8067 125.814 41.4667 125.961 41.08L125.921 39.4L126.421 39.48C126.194 39.6667 125.914 39.8133 125.581 39.92C125.261 40.0267 124.914 40.1133 124.541 40.18C124.181 40.2333 123.814 40.2933 123.441 40.36C123.081 40.4267 122.747 40.52 122.441 40.64C122.147 40.7467 121.914 40.9067 121.741 41.12C121.567 41.3333 121.481 41.62 121.481 41.98C121.481 42.42 121.621 42.7667 121.901 43.02C122.194 43.26 122.567 43.38 123.021 43.38ZM139.286 47.42C137.939 47.42 136.733 47.2533 135.666 46.92C134.613 46.5867 133.719 46.0867 132.986 45.42C132.253 44.7533 131.693 43.9333 131.306 42.96C130.919 41.9733 130.726 40.8333 130.726 39.54C130.726 38.26 130.919 37.1333 131.306 36.16C131.693 35.1733 132.253 34.3467 132.986 33.68C133.719 33.0133 134.613 32.5133 135.666 32.18C136.733 31.8333 137.939 31.66 139.286 31.66C140.633 31.66 141.833 31.8333 142.886 32.18C143.953 32.5133 144.853 33.0133 145.586 33.68C146.333 34.3467 146.899 35.1733 147.286 36.16C147.673 37.1333 147.866 38.26 147.866 39.54C147.866 40.8333 147.673 41.9733 147.286 42.96C146.899 43.9333 146.333 44.7533 145.586 45.42C144.853 46.0867 143.953 46.5867 142.886 46.92C141.833 47.2533 140.633 47.42 139.286 47.42ZM139.286 45.36C140.699 45.36 141.879 45.1533 142.826 44.74C143.773 44.3133 144.486 43.6733 144.966 42.82C145.459 41.9533 145.706 40.86 145.706 39.54C145.706 38.22 145.466 37.1333 144.986 36.28C144.506 35.4133 143.786 34.7733 142.826 34.36C141.879 33.9333 140.699 33.72 139.286 33.72C137.873 33.72 136.693 33.9333 135.746 34.36C134.799 34.7733 134.086 35.4133 133.606 36.28C133.126 37.1333 132.886 38.22 132.886 39.54C132.886 40.86 133.126 41.9533 133.606 42.82C134.086 43.6733 134.799 44.3133 135.746 44.74C136.693 45.1533 137.873 45.36 139.286 45.36ZM138.606 42.02C138.806 42.02 139.013 41.9933 139.226 41.94C139.439 41.8733 139.639 41.7733 139.826 41.64C140.026 41.5067 140.206 41.3467 140.366 41.16C140.539 40.96 140.673 40.7133 140.766 40.42L140.746 39.08L141.086 39.16C140.926 39.36 140.699 39.5067 140.406 39.6C140.126 39.6933 139.813 39.7667 139.466 39.82C139.133 39.8733 138.813 39.94 138.506 40.02C138.213 40.1 137.966 40.22 137.766 40.38C137.566 40.54 137.466 40.7733 137.466 41.08C137.466 41.3867 137.573 41.62 137.786 41.78C137.999 41.94 138.273 42.02 138.606 42.02ZM137.846 43.46C137.433 43.46 137.026 43.3933 136.626 43.26C136.239 43.1133 135.919 42.8867 135.666 42.58C135.413 42.2733 135.286 41.8667 135.286 41.36C135.286 40.88 135.393 40.4933 135.606 40.2C135.833 39.8933 136.119 39.6533 136.466 39.48C136.813 39.3067 137.193 39.18 137.606 39.1C138.019 39.0067 138.419 38.9267 138.806 38.86C139.326 38.7933 139.726 38.7267 140.006 38.66C140.286 38.58 140.479 38.4933 140.586 38.4C140.693 38.2933 140.746 38.1467 140.746 37.96C140.746 37.7867 140.699 37.6267 140.606 37.48C140.513 37.3333 140.366 37.2133 140.166 37.12C139.966 37.0267 139.706 36.98 139.386 36.98C139.146 36.98 138.893 37.02 138.626 37.1C138.373 37.1667 138.153 37.3 137.966 37.5C137.779 37.6867 137.659 37.9667 137.606 38.34L135.586 37.82C135.639 37.38 135.779 37 136.006 36.68C136.246 36.3467 136.539 36.0733 136.886 35.86C137.233 35.6467 137.626 35.4867 138.066 35.38C138.519 35.2733 138.986 35.22 139.466 35.22C140.146 35.22 140.713 35.3133 141.166 35.5C141.619 35.6867 141.979 35.9467 142.246 36.28C142.513 36.6 142.706 36.9733 142.826 37.4C142.946 37.8267 143.006 38.28 143.006 38.76V40.4C143.006 40.64 143.006 40.8733 143.006 41.1C143.006 41.3267 143.006 41.56 143.006 41.8C143.019 42.0267 143.026 42.26 143.026 42.5C143.039 42.7267 143.053 42.9733 143.066 43.24H141.286C141.259 42.8933 141.233 42.56 141.206 42.24C141.179 41.9067 141.153 41.5867 141.126 41.28H140.846C140.726 41.7467 140.519 42.1467 140.226 42.48C139.933 42.8 139.579 43.0467 139.166 43.22C138.753 43.38 138.313 43.46 137.846 43.46ZM154.363 48.56C153.23 48.56 152.303 48.4733 151.583 48.3C150.863 48.1267 150.33 47.8667 149.983 47.52C149.65 47.1733 149.483 46.7467 149.483 46.24C149.483 45.64 149.723 45.1467 150.203 44.76C150.683 44.36 151.403 44.1133 152.363 44.02V43.64C151.643 43.6533 151.097 43.58 150.723 43.42C150.35 43.2467 150.163 42.9733 150.163 42.6C150.163 42.2267 150.35 41.9 150.723 41.62C151.097 41.34 151.703 41.1133 152.543 40.94V40.56C151.743 40.5067 151.117 40.2467 150.663 39.78C150.21 39.3 149.983 38.68 149.983 37.92C149.983 37.24 150.163 36.6467 150.523 36.14C150.897 35.62 151.443 35.2133 152.163 34.92C152.883 34.6133 153.763 34.46 154.803 34.46H159.983V36.44L156.683 35.98V36.38C157.523 36.5267 158.137 36.7667 158.523 37.1C158.923 37.4333 159.123 37.8867 159.123 38.46C159.123 39.0067 158.95 39.4933 158.603 39.92C158.257 40.3333 157.757 40.66 157.103 40.9C156.45 41.1267 155.657 41.24 154.723 41.24C154.537 41.24 154.343 41.2333 154.143 41.22C153.943 41.2067 153.637 41.1733 153.223 41.12C152.93 41.3067 152.697 41.48 152.523 41.64C152.363 41.7867 152.283 41.9267 152.283 42.06C152.283 42.1667 152.343 42.2533 152.463 42.32C152.597 42.3867 152.763 42.4333 152.963 42.46C153.177 42.4867 153.383 42.5 153.583 42.5H156.403C156.657 42.5 156.99 42.5267 157.403 42.58C157.83 42.62 158.25 42.7267 158.663 42.9C159.09 43.06 159.443 43.3333 159.723 43.72C160.017 44.0933 160.163 44.6133 160.163 45.28C160.163 46.04 159.95 46.66 159.523 47.14C159.097 47.6333 158.45 47.9933 157.583 48.22C156.73 48.4467 155.657 48.56 154.363 48.56ZM154.583 46.52C155.423 46.52 156.09 46.4667 156.583 46.36C157.077 46.2667 157.423 46.12 157.623 45.92C157.837 45.72 157.943 45.4667 157.943 45.16C157.943 44.8667 157.877 44.64 157.743 44.48C157.61 44.32 157.437 44.2067 157.223 44.14C157.023 44.0733 156.817 44.0333 156.603 44.02C156.39 43.9933 156.21 43.98 156.063 43.98H153.583C152.957 44.0867 152.517 44.2667 152.263 44.52C152.01 44.7733 151.883 45.0667 151.883 45.4C151.883 45.7067 151.99 45.94 152.203 46.1C152.417 46.26 152.723 46.3667 153.123 46.42C153.523 46.4867 154.01 46.52 154.583 46.52ZM154.643 39.84C155.337 39.84 155.863 39.68 156.223 39.36C156.583 39.0267 156.763 38.6 156.763 38.08C156.763 37.5067 156.577 37.04 156.203 36.68C155.843 36.32 155.317 36.14 154.623 36.14C153.943 36.14 153.417 36.32 153.043 36.68C152.67 37.0267 152.483 37.48 152.483 38.04C152.483 38.3867 152.563 38.7 152.723 38.98C152.897 39.2467 153.143 39.46 153.463 39.62C153.783 39.7667 154.177 39.84 154.643 39.84ZM162.12 45V38.5V34.54H164.2L164.14 37.86H164.48C164.653 37.0467 164.886 36.38 165.18 35.86C165.486 35.3267 165.86 34.9333 166.3 34.68C166.74 34.4133 167.253 34.28 167.84 34.28C168.32 34.28 168.733 34.3667 169.08 34.54C169.44 34.7 169.733 34.9333 169.96 35.24C170.2 35.5467 170.386 35.92 170.52 36.36C170.653 36.8 170.733 37.2933 170.76 37.84H171.06C171.233 37.0267 171.48 36.36 171.8 35.84C172.133 35.3067 172.533 34.9133 173 34.66C173.48 34.4067 174.006 34.28 174.58 34.28C175.233 34.28 175.773 34.4133 176.2 34.68C176.626 34.9467 176.96 35.2933 177.2 35.72C177.44 36.1467 177.613 36.6 177.72 37.08C177.84 37.56 177.913 38.02 177.94 38.46C177.966 38.8867 177.98 39.24 177.98 39.52V45H175.44V39.84C175.44 39.5733 175.426 39.2533 175.4 38.88C175.386 38.5067 175.32 38.14 175.2 37.78C175.093 37.4067 174.92 37.1 174.68 36.86C174.44 36.6067 174.1 36.48 173.66 36.48C173.206 36.48 172.806 36.64 172.46 36.96C172.113 37.28 171.84 37.72 171.64 38.28C171.44 38.84 171.32 39.4867 171.28 40.22V45H168.8V40C168.8 39.7467 168.786 39.4267 168.76 39.04C168.746 38.64 168.686 38.2467 168.58 37.86C168.473 37.4733 168.293 37.1467 168.04 36.88C167.8 36.6133 167.453 36.48 167 36.48C166.533 36.48 166.126 36.6467 165.78 36.98C165.446 37.3 165.18 37.7467 164.98 38.32C164.793 38.88 164.68 39.5267 164.64 40.26V45H162.12ZM182.998 45.26C182.424 45.26 181.904 45.1533 181.438 44.94C180.984 44.7133 180.624 44.3867 180.358 43.96C180.104 43.52 179.978 42.9867 179.978 42.36C179.978 41.6533 180.131 41.0867 180.438 40.66C180.758 40.2333 181.164 39.9067 181.658 39.68C182.164 39.4533 182.698 39.2867 183.258 39.18C183.831 39.0733 184.371 38.9867 184.878 38.92C185.371 38.84 185.758 38.7667 186.038 38.7C186.331 38.6333 186.544 38.5333 186.678 38.4C186.811 38.2533 186.878 38.0533 186.878 37.8C186.878 37.5067 186.811 37.2467 186.678 37.02C186.544 36.78 186.344 36.5933 186.078 36.46C185.811 36.3267 185.464 36.26 185.038 36.26C184.651 36.26 184.278 36.3267 183.918 36.46C183.571 36.5933 183.271 36.8067 183.018 37.1C182.778 37.38 182.611 37.7533 182.518 38.22L180.258 37.56C180.391 37.0133 180.598 36.54 180.878 36.14C181.158 35.7267 181.504 35.38 181.918 35.1C182.331 34.82 182.798 34.6133 183.318 34.48C183.851 34.3467 184.424 34.28 185.038 34.28C185.864 34.28 186.551 34.3867 187.098 34.6C187.658 34.8133 188.098 35.12 188.418 35.52C188.751 35.92 188.991 36.4 189.138 36.96C189.284 37.5067 189.358 38.1133 189.358 38.78V40.72C189.358 41.1733 189.364 41.6467 189.378 42.14C189.404 42.62 189.431 43.1067 189.458 43.6C189.484 44.08 189.524 44.5467 189.578 45H187.318C187.278 44.6133 187.238 44.2067 187.198 43.78C187.158 43.34 187.131 42.8933 187.118 42.44H186.798C186.624 42.9467 186.364 43.42 186.018 43.86C185.671 44.2867 185.244 44.6267 184.738 44.88C184.231 45.1333 183.651 45.26 182.998 45.26ZM183.978 43.38C184.244 43.38 184.518 43.3333 184.798 43.24C185.078 43.1467 185.351 43.0067 185.618 42.82C185.884 42.6333 186.131 42.3933 186.358 42.1C186.584 41.8067 186.771 41.4667 186.918 41.08L186.878 39.4L187.378 39.48C187.151 39.6667 186.871 39.8133 186.538 39.92C186.218 40.0267 185.871 40.1133 185.498 40.18C185.138 40.2333 184.771 40.2933 184.398 40.36C184.038 40.4267 183.704 40.52 183.398 40.64C183.104 40.7467 182.871 40.9067 182.698 41.12C182.524 41.3333 182.438 41.62 182.438 41.98C182.438 42.42 182.578 42.7667 182.858 43.02C183.151 43.26 183.524 43.38 183.978 43.38ZM191.983 45V34.54H194.503V45H191.983ZM193.263 32.94C192.756 32.94 192.363 32.8333 192.083 32.62C191.816 32.4067 191.683 32.0933 191.683 31.68C191.683 31.2533 191.816 30.9333 192.083 30.72C192.363 30.5067 192.756 30.4 193.263 30.4C193.783 30.4 194.176 30.5067 194.443 30.72C194.723 30.9333 194.863 31.2533 194.863 31.68C194.863 32.0933 194.723 32.4067 194.443 32.62C194.176 32.8333 193.783 32.94 193.263 32.94ZM197.237 45V30.84H199.737V45H197.237ZM203.212 45.24C202.652 45.24 202.232 45.12 201.952 44.88C201.672 44.64 201.532 44.2667 201.532 43.76C201.532 43.2533 201.672 42.88 201.952 42.64C202.232 42.4 202.652 42.28 203.212 42.28C203.785 42.28 204.212 42.4 204.492 42.64C204.772 42.88 204.912 43.2533 204.912 43.76C204.912 44.7467 204.345 45.24 203.212 45.24ZM211.312 45.26C210.406 45.26 209.619 45.1267 208.952 44.86C208.299 44.5933 207.759 44.22 207.332 43.74C206.906 43.2467 206.579 42.6733 206.352 42.02C206.139 41.3667 206.032 40.66 206.032 39.9C206.032 39.0867 206.146 38.3467 206.372 37.68C206.599 37 206.926 36.4067 207.352 35.9C207.792 35.38 208.332 34.98 208.972 34.7C209.626 34.42 210.372 34.28 211.212 34.28C211.852 34.28 212.426 34.36 212.932 34.52C213.452 34.68 213.899 34.9133 214.272 35.22C214.646 35.5267 214.952 35.8867 215.192 36.3C215.432 36.7133 215.599 37.1733 215.692 37.68L213.332 38.4C213.306 37.9733 213.199 37.6067 213.012 37.3C212.826 36.98 212.572 36.7333 212.252 36.56C211.932 36.3867 211.552 36.3 211.112 36.3C210.739 36.3 210.399 36.3733 210.092 36.52C209.786 36.6667 209.519 36.8867 209.292 37.18C209.079 37.46 208.906 37.82 208.772 38.26C208.652 38.7 208.592 39.2133 208.592 39.8C208.592 40.5867 208.699 41.2467 208.912 41.78C209.139 42.3 209.452 42.6933 209.852 42.96C210.266 43.2133 210.766 43.34 211.352 43.34C211.886 43.34 212.319 43.2333 212.652 43.02C212.999 42.8067 213.259 42.5333 213.432 42.2C213.606 41.8533 213.712 41.48 213.752 41.08L215.992 41.56C215.939 42.1067 215.799 42.6067 215.572 43.06C215.346 43.5133 215.032 43.9067 214.632 44.24C214.246 44.56 213.779 44.8133 213.232 45C212.686 45.1733 212.046 45.26 211.312 45.26ZM222.425 45.26C221.385 45.26 220.471 45.0533 219.685 44.64C218.911 44.2133 218.298 43.5933 217.845 42.78C217.405 41.9533 217.185 40.94 217.185 39.74C217.185 38.5133 217.411 37.5 217.865 36.7C218.318 35.8867 218.938 35.28 219.725 34.88C220.511 34.48 221.405 34.28 222.405 34.28C223.418 34.28 224.318 34.4867 225.105 34.9C225.891 35.3133 226.511 35.9333 226.965 36.76C227.418 37.5733 227.645 38.5867 227.645 39.8C227.645 41.0267 227.411 42.0467 226.945 42.86C226.491 43.6733 225.871 44.28 225.085 44.68C224.298 45.0667 223.411 45.26 222.425 45.26ZM222.505 43.34C222.838 43.34 223.158 43.2867 223.465 43.18C223.771 43.06 224.045 42.8733 224.285 42.62C224.538 42.3533 224.738 42 224.885 41.56C225.031 41.1067 225.105 40.56 225.105 39.92C225.105 39.24 225.025 38.6733 224.865 38.22C224.705 37.7533 224.491 37.38 224.225 37.1C223.971 36.8067 223.678 36.6 223.345 36.48C223.011 36.3467 222.671 36.28 222.325 36.28C222.005 36.28 221.691 36.34 221.385 36.46C221.078 36.5667 220.798 36.7533 220.545 37.02C220.305 37.2733 220.105 37.62 219.945 38.06C219.798 38.5 219.725 39.0467 219.725 39.7C219.725 40.38 219.798 40.9533 219.945 41.42C220.105 41.8733 220.318 42.2467 220.585 42.54C220.851 42.82 221.145 43.0267 221.465 43.16C221.798 43.28 222.145 43.34 222.505 43.34ZM229.796 45V38.5V34.54H231.876L231.816 37.86H232.156C232.329 37.0467 232.562 36.38 232.856 35.86C233.162 35.3267 233.536 34.9333 233.976 34.68C234.416 34.4133 234.929 34.28 235.516 34.28C235.996 34.28 236.409 34.3667 236.756 34.54C237.116 34.7 237.409 34.9333 237.636 35.24C237.876 35.5467 238.062 35.92 238.196 36.36C238.329 36.8 238.409 37.2933 238.436 37.84H238.736C238.909 37.0267 239.156 36.36 239.476 35.84C239.809 35.3067 240.209 34.9133 240.676 34.66C241.156 34.4067 241.682 34.28 242.256 34.28C242.909 34.28 243.449 34.4133 243.876 34.68C244.302 34.9467 244.636 35.2933 244.876 35.72C245.116 36.1467 245.289 36.6 245.396 37.08C245.516 37.56 245.589 38.02 245.616 38.46C245.642 38.8867 245.656 39.24 245.656 39.52V45H243.116V39.84C243.116 39.5733 243.102 39.2533 243.076 38.88C243.062 38.5067 242.996 38.14 242.876 37.78C242.769 37.4067 242.596 37.1 242.356 36.86C242.116 36.6067 241.776 36.48 241.336 36.48C240.882 36.48 240.482 36.64 240.136 36.96C239.789 37.28 239.516 37.72 239.316 38.28C239.116 38.84 238.996 39.4867 238.956 40.22V45H236.476V40C236.476 39.7467 236.462 39.4267 236.436 39.04C236.422 38.64 236.362 38.2467 236.256 37.86C236.149 37.4733 235.969 37.1467 235.716 36.88C235.476 36.6133 235.129 36.48 234.676 36.48C234.209 36.48 233.802 36.6467 233.456 36.98C233.122 37.3 232.856 37.7467 232.656 38.32C232.469 38.88 232.356 39.5267 232.316 40.26V45H229.796Z" fill="white"/>
<rect x="0.5" y="0.5" width="258" height="57" rx="9.5" stroke="white"/>
</svg>
